<svg width="1600" height="900" viewBox="0 0 1600 900" fill="none" xmlns="http://www.w3.org/2000/svg">
<g clip-path="url(#clip0_111_41)">
<path d="M990.095 612.941C984.952 612.941 979.926 611.416 975.65 608.559C971.374 605.702 968.042 601.642 966.074 596.891C964.106 592.14 963.591 586.912 964.594 581.869C965.598 576.825 968.074 572.192 971.71 568.556C975.346 564.92 979.979 562.444 985.022 561.441C990.066 560.437 995.294 560.952 1000.04 562.92C1004.8 564.888 1008.86 568.22 1011.71 572.496C1014.57 576.772 1016.09 581.799 1016.09 586.941C1016.09 593.834 1013.35 600.443 1008.47 605.317C1003.6 610.191 996.988 612.933 990.095 612.941Z" fill="#CCCCCC"/>
<path d="M1002.09 585.941H991.095V573.441C991.095 573.176 990.989 572.921 990.802 572.734C990.614 572.546 990.36 572.441 990.095 572.441C989.83 572.441 989.575 572.546 989.388 572.734C989.2 572.921 989.095 573.176 989.095 573.441V585.941H978.095C977.83 585.941 977.575 586.046 977.388 586.234C977.2 586.421 977.095 586.676 977.095 586.941C977.095 587.206 977.2 587.46 977.388 587.648C977.575 587.836 977.83 587.941 978.095 587.941H989.095V600.441C989.095 600.706 989.2 600.96 989.388 601.148C989.575 601.336 989.83 601.441 990.095 601.441C990.36 601.441 990.614 601.336 990.802 601.148C990.989 600.96 991.095 600.706 991.095 600.441V587.941H1002.09C1002.36 587.941 1002.61 587.836 1002.8 587.648C1002.99 587.46 1003.09 587.206 1003.09 586.941C1003.09 586.676 1002.99 586.421 1002.8 586.234C1002.61 586.046 1002.36 585.941 1002.09 585.941Z" fill="white"/>
<path d="M1090.22 734.779L1078.79 734.778L1073.35 690.682L1090.22 690.683L1090.22 734.779Z" fill="#FFB8B8"/>
<path d="M1070.62 731.511H1092.67V745.393H1056.74C1056.74 743.57 1057.1 741.765 1057.8 740.08C1058.49 738.396 1059.52 736.866 1060.81 735.577C1062.1 734.288 1063.63 733.265 1065.31 732.567C1066.99 731.87 1068.8 731.511 1070.62 731.511Z" fill="#2F2E41"/>
<path d="M1044.72 734.779L1033.29 734.778L1027.85 690.682L1044.72 690.683L1044.72 734.779Z" fill="#FFB8B8"/>
<path d="M1025.12 731.511H1047.17V745.393H1011.24C1011.24 743.57 1011.6 741.765 1012.3 740.08C1012.99 738.396 1014.02 736.866 1015.31 735.577C1016.6 734.288 1018.13 733.265 1019.81 732.567C1021.49 731.87 1023.3 731.511 1025.12 731.511Z" fill="#2F2E41"/>
<path d="M1099.03 582.328C1098.11 581.312 1097.42 580.107 1097.02 578.797C1096.61 577.487 1096.5 576.104 1096.69 574.746C1096.88 573.388 1097.36 572.088 1098.11 570.938C1098.85 569.787 1099.84 568.814 1101 568.086L1097.46 546.953L1109.78 541.669L1114.36 571.584C1115.45 573.617 1115.76 575.98 1115.23 578.225C1114.69 580.471 1113.36 582.443 1111.47 583.767C1109.58 585.092 1107.27 585.677 1104.97 585.411C1102.68 585.146 1100.56 584.049 1099.03 582.328Z" fill="#FFB8B8"/>
<path d="M1002.59 572.343C1003.66 571.492 1004.54 570.417 1005.15 569.191C1005.77 567.966 1006.11 566.621 1006.15 565.251C1006.18 563.88 1005.92 562.518 1005.38 561.26C1004.83 560.002 1004.02 558.879 1002.99 557.97L1009.98 537.712L998.7 530.465L989.24 559.212C987.827 561.037 987.132 563.316 987.287 565.619C987.442 567.922 988.437 570.088 990.082 571.706C991.727 573.325 993.909 574.284 996.214 574.401C998.519 574.518 1000.79 573.786 1002.59 572.343Z" fill="#FFB8B8"/>
<path d="M1061.14 423.104C1074.7 423.104 1085.7 412.107 1085.7 398.542C1085.7 384.978 1074.7 373.981 1061.14 373.981C1047.57 373.981 1036.58 384.978 1036.58 398.542C1036.58 412.107 1047.57 423.104 1061.14 423.104Z" fill="#FFB8B8"/>
<path d="M1001.83 557.187C1001.41 557.186 1000.99 557.127 1000.58 557.01L993.425 554.955C992.282 554.625 991.316 553.856 990.737 552.816C990.159 551.776 990.015 550.549 990.337 549.404L1005.11 497.242L1025.71 446.666C1027.76 441.639 1032.04 438.341 1036.88 438.061C1039.09 437.953 1041.29 438.489 1043.2 439.603C1045.12 440.717 1046.66 442.362 1047.66 444.338C1048.77 446.454 1049.38 448.795 1049.44 451.182C1049.5 453.569 1049.02 455.939 1048.02 458.109L1024.6 509.319L1005.98 554.403C1005.65 555.226 1005.07 555.93 1004.33 556.426C1003.59 556.921 1002.72 557.186 1001.83 557.187Z" fill="#3F3D56"/>
<path d="M1075 419.14L1061.35 419.382C1059.93 419.41 1058.52 419.104 1057.24 418.488C1055.96 417.872 1054.84 416.963 1053.98 415.835C1053.11 414.708 1052.52 413.392 1052.26 411.995C1051.99 410.598 1052.06 409.159 1052.46 407.793C1052.75 406.806 1052.97 405.799 1053.11 404.78C1053.27 403.669 1053.3 402.544 1053.2 401.426C1053.12 400.307 1052.65 399.251 1051.89 398.43C1051.12 397.609 1050.1 397.073 1048.99 396.909C1047.88 396.745 1046.74 396.964 1045.77 397.529C1044.8 398.094 1044.05 398.971 1043.65 400.018C1041.35 400.051 1036.46 399.303 1034.17 399.335C1029.3 386.846 1039.91 370.502 1051.34 364.364C1063 358.106 1078.12 364.472 1082.59 377.515C1088.78 377.627 1093.82 383.74 1094.62 390.622C1095.42 397.503 1092.59 404.689 1088.26 409.963C1083.92 415.238 1078.24 419.082 1075 419.14Z" fill="#2F2E41"/>
<path d="M1030.14 730.662C1029.04 730.656 1027.97 730.244 1027.15 729.505C1026.33 728.766 1025.8 727.751 1025.68 726.652L1020.62 556.417L1084.4 560.957L1084.45 561.367C1098.87 682.03 1093.94 723.799 1093.89 724.207C1093.85 724.824 1093.69 725.427 1093.41 725.979C1093.13 726.531 1092.74 727.019 1092.27 727.414C1091.79 727.808 1091.24 728.1 1090.64 728.271C1090.05 728.443 1089.43 728.49 1088.81 728.409L1074.72 728.747C1073.65 728.626 1072.66 728.126 1071.93 727.338C1071.19 726.55 1070.77 725.526 1070.73 724.451L1057.56 601.151C1057.47 600.831 1057.28 600.55 1057.01 600.357C1056.75 600.164 1056.42 600.071 1056.09 600.095C1055.75 600.094 1055.42 600.211 1055.16 600.426C1054.9 600.64 1054.72 600.94 1054.65 601.272L1049.56 724.976C1049.62 726.124 1049.23 727.249 1048.47 728.119C1047.72 728.988 1046.66 729.535 1045.52 729.646L1030.59 730.639C1030.44 730.654 1030.29 730.662 1030.14 730.662Z" fill="#2F2E41"/>
<path d="M1056.61 576.758C1056.23 576.758 1055.85 576.752 1055.47 576.74C1037.12 576.188 1022.77 562.311 1018.81 558.071C1018.31 557.53 1017.95 556.873 1017.76 556.158C1017.57 555.443 1017.56 554.693 1017.73 553.973L1028.31 509.209L1025.51 470.292C1025.06 464.891 1025.77 459.458 1027.58 454.35C1029.39 449.243 1032.27 444.576 1036.01 440.659C1039.13 437.363 1042.92 434.776 1047.13 433.074C1051.34 431.372 1055.86 430.594 1060.4 430.793C1078.25 431.645 1092.34 447.605 1092.47 467.126C1092.66 497.361 1091.77 499.438 1091.48 500.12C1082.57 520.917 1087.44 550.11 1089.14 558.562C1089.29 559.316 1089.25 560.096 1089.02 560.829C1088.78 561.562 1088.36 562.223 1087.8 562.749C1078 572.048 1067.51 576.757 1056.61 576.758Z" fill="#3F3D56"/>
<path d="M1102.67 565.379C1101.66 565.378 1100.67 565.032 1099.87 564.397C1099.08 563.762 1098.52 562.877 1098.29 561.884L1087.38 514.327L1072.75 459.97C1072.12 457.665 1072.03 455.248 1072.49 452.903C1072.94 450.559 1073.93 448.351 1075.37 446.447C1076.68 444.664 1078.48 443.298 1080.55 442.515C1082.62 441.733 1084.88 441.567 1087.04 442.037C1091.77 443.113 1095.45 447.072 1096.64 452.37L1108.59 505.599L1114.55 559.54C1114.68 560.723 1114.34 561.908 1113.59 562.838C1112.85 563.769 1111.77 564.367 1110.59 564.505L1103.19 565.349C1103.02 565.369 1102.85 565.379 1102.67 565.379Z" fill="#3F3D56"/>
<path d="M514.832 570.507C516.127 569.619 517.212 568.458 518.01 567.105C518.808 565.753 519.3 564.242 519.451 562.678C519.601 561.115 519.408 559.538 518.883 558.057C518.358 556.577 517.515 555.23 516.414 554.111L520.581 461.093L499.365 463.474L500.598 554.459C498.84 556.434 497.868 558.986 497.866 561.63C497.864 564.274 498.832 566.827 500.587 568.805C502.341 570.783 504.76 572.049 507.386 572.363C510.011 572.677 512.661 572.016 514.832 570.507Z" fill="#FFB8B8"/>
<path d="M553.534 727.966L565.609 730.089L577.543 684.525L561.722 681.392L553.534 727.966Z" fill="#FFB8B8"/>
<path d="M586.925 745.395L548.976 738.723L551.554 724.061L574.84 728.155C576.766 728.493 578.606 729.208 580.255 730.257C581.904 731.307 583.331 732.671 584.453 734.272C585.575 735.873 586.371 737.679 586.795 739.587C587.219 741.496 587.263 743.469 586.925 745.395Z" fill="#2F2E41"/>
<path d="M520.392 734.01H532.652L538.484 686.722L520.39 686.723L520.392 734.01Z" fill="#FFB8B8"/>
<path d="M556.296 745.393L517.766 745.395L517.765 730.508L541.409 730.507C545.357 730.507 549.144 732.075 551.936 734.867C554.728 737.658 556.296 741.445 556.296 745.393Z" fill="#2F2E41"/>
<path d="M572.545 721.061C572.354 721.061 572.162 721.05 571.972 721.027L557.542 719.839C556.885 719.762 556.251 719.552 555.678 719.222C555.104 718.892 554.604 718.449 554.207 717.92C553.811 717.39 553.525 716.786 553.369 716.143C553.213 715.5 553.19 714.832 553.3 714.18L566.625 639.499L557.621 592.025C557.548 591.639 557.337 591.293 557.029 591.05C556.72 590.808 556.334 590.685 555.942 590.704C555.55 590.724 555.178 590.884 554.895 591.156C554.612 591.429 554.437 591.794 554.402 592.185L543.146 718.813C543.023 720.083 542.41 721.256 541.438 722.084C540.466 722.912 539.211 723.33 537.937 723.25L524.342 722.743C523.151 722.659 522.031 722.141 521.195 721.288C520.36 720.435 519.865 719.305 519.805 718.112L518.892 566.345L589.373 557.535L594.296 633.576L594.277 633.656L577.286 717.331C577.027 718.394 576.419 719.339 575.56 720.015C574.7 720.691 573.639 721.059 572.545 721.061Z" fill="#2F2E41"/>
<path d="M542.129 400.816C555.694 400.816 566.69 389.82 566.69 376.255C566.69 362.69 555.694 351.694 542.129 351.694C528.564 351.694 517.568 362.69 517.568 376.255C517.568 389.82 528.564 400.816 542.129 400.816Z" fill="#FFB8B8"/>
<path d="M565.272 577.438C561.431 577.46 557.663 576.383 554.415 574.332C542.518 566.896 529.004 569.851 522.008 572.275C521.314 572.518 520.574 572.601 519.843 572.518C519.112 572.434 518.409 572.187 517.788 571.794C517.173 571.408 516.654 570.888 516.268 570.273C515.883 569.658 515.642 568.964 515.563 568.242L502.841 454.617C500.709 435.579 512.177 417.68 530.108 412.057C530.782 411.846 531.467 411.645 532.164 411.456C537.744 409.943 543.588 409.671 549.284 410.66C554.981 411.649 560.391 413.874 565.136 417.179C569.968 420.52 574.009 424.879 576.975 429.951C579.941 435.022 581.759 440.682 582.302 446.532L593.013 560.919C593.086 561.659 592.986 562.407 592.721 563.102C592.456 563.797 592.033 564.422 591.486 564.926C587.731 568.399 576.834 577.436 565.272 577.438Z" fill="#6C63FF"/>
<path d="M526.531 478.983L497.827 475.827C497.011 475.737 496.223 475.472 495.518 475.051C494.813 474.629 494.207 474.06 493.741 473.383C493.276 472.706 492.962 471.937 492.82 471.127C492.679 470.318 492.713 469.488 492.922 468.693L500.228 440.847C500.711 436.671 502.83 432.857 506.121 430.241C509.412 427.626 513.606 426.422 517.783 426.893C521.96 427.365 525.78 429.474 528.404 432.757C531.029 436.041 532.245 440.231 531.784 444.41L532.869 473.085C532.9 473.906 532.753 474.724 532.439 475.484C532.126 476.243 531.652 476.926 531.05 477.485C530.449 478.045 529.734 478.468 528.954 478.727C528.174 478.985 527.347 479.073 526.531 478.983Z" fill="#6C63FF"/>
<path d="M592.898 566.524C594.077 565.487 595.014 564.203 595.643 562.764C596.272 561.325 596.578 559.766 596.54 558.196C596.501 556.626 596.119 555.083 595.419 553.677C594.72 552.271 593.721 551.035 592.492 550.057L585.419 457.214L564.631 461.894L576.834 552.308C575.327 554.481 574.67 557.131 574.986 559.756C575.303 562.381 576.571 564.799 578.551 566.551C580.532 568.304 583.086 569.269 585.73 569.264C588.374 569.259 590.924 568.284 592.898 566.524Z" fill="#FFB8B8"/>
<path d="M556.66 473.146C556.059 472.587 555.585 471.904 555.271 471.145C554.957 470.385 554.811 469.567 554.842 468.746L555.927 440.071C555.466 435.893 556.682 431.702 559.307 428.419C561.931 425.135 565.751 423.026 569.928 422.554C574.105 422.083 578.299 423.287 581.59 425.902C584.881 428.518 587 432.332 587.483 436.508L594.789 464.354C594.998 465.149 595.032 465.979 594.891 466.789C594.749 467.598 594.435 468.367 593.97 469.044C593.504 469.721 592.898 470.29 592.193 470.712C591.488 471.133 590.7 471.398 589.884 471.488L561.18 474.644C560.363 474.734 559.537 474.647 558.757 474.389C557.977 474.13 557.262 473.706 556.66 473.146Z" fill="#6C63FF"/>
<path d="M540.668 401.741C540.232 401.741 539.797 401.69 539.372 401.59L539.247 401.56C517.652 398.256 512.88 385.748 511.832 380.525C510.748 375.116 511.983 369.896 514.773 367.869C513.252 363.066 513.496 358.808 515.5 355.207C518.995 348.927 526.581 346.803 527.598 346.543C533.656 342.074 540.905 345.057 542.224 345.662C553.942 341.327 558.421 344.936 559.231 345.741C564.469 346.682 567.662 348.706 568.722 351.757C570.713 357.488 564.417 364.617 564.148 364.918L564.008 365.073L554.628 365.52C553.738 365.563 552.867 365.792 552.071 366.193C551.275 366.594 550.572 367.157 550.009 367.847C549.445 368.537 549.032 369.338 548.797 370.197C548.563 371.057 548.512 371.956 548.647 372.837C548.901 373.974 549.222 375.094 549.607 376.193C551.209 381.199 552.41 385.476 550.862 387.102C550.511 387.416 550.079 387.626 549.614 387.706C549.15 387.787 548.672 387.735 548.236 387.557C546.77 387.165 545.774 387.247 545.278 387.802C544.508 388.661 544.743 390.836 545.94 393.927C546.316 394.904 546.417 395.966 546.232 396.996C546.048 398.027 545.585 398.988 544.894 399.774C544.374 400.388 543.726 400.882 542.997 401.221C542.267 401.561 541.473 401.738 540.668 401.741Z" fill="#2F2E41"/>
<path d="M625 746.941H485C484.735 746.941 484.48 746.836 484.293 746.648C484.105 746.46 484 746.206 484 745.941C484 745.676 484.105 745.421 484.293 745.234C484.48 745.046 484.735 744.941 485 744.941H625C625.265 744.941 625.52 745.046 625.707 745.234C625.895 745.421 626 745.676 626 745.941C626 746.206 625.895 746.46 625.707 746.648C625.52 746.836 625.265 746.941 625 746.941Z" fill="#CCCCCC"/>
<path d="M1113 746.941H973C972.735 746.941 972.48 746.836 972.293 746.648C972.105 746.46 972 746.206 972 745.941C972 745.676 972.105 745.421 972.293 745.234C972.48 745.046 972.735 744.941 973 744.941H1113C1113.27 744.941 1113.52 745.046 1113.71 745.234C1113.89 745.421 1114 745.676 1114 745.941C1114 746.206 1113.89 746.46 1113.71 746.648C1113.52 746.836 1113.27 746.941 1113 746.941Z" fill="#CCCCCC"/>
<path d="M912.713 577H670.713C661.434 576.989 652.537 573.299 645.976 566.737C639.414 560.176 635.723 551.279 635.713 542V188C635.723 178.721 639.414 169.824 645.976 163.263C652.537 156.701 661.434 153.011 670.713 153H912.713C921.992 153.011 930.889 156.701 937.45 163.263C944.012 169.824 947.702 178.721 947.713 188V542C947.702 551.279 944.012 560.176 937.45 566.737C930.889 573.299 921.992 576.989 912.713 577Z" fill="white"/>
<path d="M874.713 434.029H708.713C691.756 433.948 691.685 408.118 708.714 408.029L874.713 408.029C891.658 408.109 891.75 433.941 874.713 434.029Z" fill="#CCCCCC"/>
<path d="M874.713 225.971H708.713C691.756 225.889 691.685 200.059 708.714 199.971L874.713 199.971C891.658 200.05 891.75 225.882 874.713 225.971Z" fill="#CCCCCC"/>
<path d="M874.713 482.029H708.713C691.756 481.948 691.685 456.118 708.714 456.029L874.713 456.029C891.658 456.109 891.75 481.941 874.713 482.029Z" fill="#CCCCCC"/>
<path d="M874.713 530.029H708.713C691.756 529.948 691.685 504.118 708.714 504.029L874.713 504.029C891.658 504.109 891.75 529.941 874.713 530.029Z" fill="#CCCCCC"/>
<path d="M871.5 376.6H711.5C707.125 376.595 702.931 374.855 699.838 371.761C696.744 368.668 695.004 364.474 695 360.1V270.5C695.004 266.125 696.744 261.931 699.838 258.838C702.931 255.745 707.125 254.005 711.5 254H871.5C875.874 254.005 880.068 255.745 883.161 258.838C886.255 261.931 887.995 266.125 888 270.5V360.1C887.995 364.474 886.255 368.668 883.161 371.761C880.068 374.855 875.874 376.595 871.5 376.6Z" fill="#6C63FF"/>
<path d="M912.713 577H670.713C661.434 576.989 652.537 573.299 645.976 566.737C639.414 560.176 635.723 551.279 635.713 542V188C635.723 178.721 639.414 169.824 645.976 163.263C652.537 156.701 661.434 153.011 670.713 153H912.713C921.992 153.011 930.889 156.701 937.45 163.263C944.012 169.824 947.702 178.721 947.713 188V542C947.702 551.279 944.012 560.176 937.45 566.737C930.889 573.299 921.992 576.989 912.713 577ZM670.713 159C663.024 159.009 655.653 162.067 650.216 167.504C644.78 172.94 641.722 180.311 641.713 188V542C641.722 549.689 644.78 557.06 650.216 562.497C655.653 567.933 663.024 570.991 670.713 571H912.713C920.402 570.991 927.773 567.933 933.209 562.497C938.646 557.06 941.704 549.689 941.713 542V188C941.704 180.311 938.646 172.94 933.209 167.503C927.773 162.067 920.402 159.009 912.713 159H670.713Z" fill="#E6E6E6"/>
<path d="M747.511 288.182V342H736.132V298.982H735.817L723.492 306.708V296.617L736.815 288.182H747.511ZM783.716 288.182V342H772.337V298.982H772.022L759.697 306.708V296.617L773.02 288.182H783.716ZM818.081 301.636V310.045H793.774V301.636H818.081ZM799.292 291.966H810.487V329.597C810.487 330.63 810.645 331.436 810.96 332.014C811.275 332.575 811.713 332.969 812.274 333.197C812.852 333.424 813.518 333.538 814.271 333.538C814.797 333.538 815.322 333.495 815.848 333.407C816.373 333.302 816.776 333.223 817.056 333.17L818.817 341.501C818.257 341.676 817.468 341.877 816.452 342.105C815.436 342.35 814.201 342.499 812.747 342.552C810.049 342.657 807.684 342.298 805.652 341.474C803.637 340.651 802.069 339.372 800.948 337.638C799.827 335.903 799.275 333.714 799.292 331.068V291.966ZM832.285 357.136C830.866 357.136 829.534 357.022 828.29 356.795C827.064 356.585 826.048 356.313 825.242 355.98L827.765 347.624C829.079 348.027 830.261 348.246 831.312 348.281C832.381 348.316 833.301 348.07 834.072 347.545C834.86 347.019 835.5 346.126 835.99 344.864L836.647 343.156L822.168 301.636H833.94L842.297 331.278H842.717L851.153 301.636H863.004L847.316 346.362C846.563 348.535 845.538 350.427 844.241 352.038C842.963 353.668 841.342 354.92 839.38 355.796C837.418 356.69 835.053 357.136 832.285 357.136Z" fill="white"/>
</g>
<defs>
<clipPath id="clip0_111_41">
<rect width="631.483" height="593.941" fill="white" transform="translate(484 153)"/>
</clipPath>
</defs>
</svg>
