<svg xmlns="http://www.w3.org/2000/svg" style="transform: matrix(1.3, 0, 0, 1.3, 0, 0); transform-origin: 50% 50%; cursor: move; max-height: none; transition: transform 200ms ease-in-out 0s;" width="500" height="500" viewBox="0 0 5000 5000"><g id="l3hWmj3KlfezABZ6Ng1jHAF" fill="rgb(14,20,21)" style="transform: none;"><g style="transform: none;"><path id="pmc8iwWNz" d="M12 4988 c-7 -7 -12 -38 -12 -70 0 -56 1 -58 27 -58 30 0 119 54 133 81 6 10 10 27 10 38 0 19 -6 21 -73 21 -43 0 -78 -5 -85 -12z"></path><path id="prcs4cVYa" d="M186 4984 c-3 -9 -6 -27 -6 -41 0 -31 -39 -135 -90 -239 -22 -44 -40 -93 -40 -107 0 -25 3 -27 39 -27 36 0 42 4 72 52 19 28 42 70 52 92 l17 41 -6 -65 c-3 -36 -17 -113 -30 -172 l-25 -107 -37 -3 c-33 -3 -42 -10 -84 -73 l-47 -70 0 -255 -1 -255 93 -62 c50 -33 127 -77 169 -97 61 -29 95 -54 155 -115 91 -92 102 -95 308 -107 100 -5 159 -3 255 11 148 20 179 15 259 -44 36 -27 70 -43 105 -49 121 -22 274 -53 308 -62 40 -11 68 -49 68 -90 0 -12 -41 -95 -91 -185 -77 -140 -119 -229 -143 -308 -4 -11 -15 -21 -26 -24 -17 -5 -20 -14 -20 -64 l0 -59 35 0 c32 0 35 3 41 38 4 20 19 51 35 69 15 18 44 66 63 107 19 41 54 95 76 121 22 26 47 63 56 83 8 20 19 39 23 42 5 3 20 28 34 55 37 73 111 135 161 135 40 0 348 128 361 151 8 12 45 12 45 -1 0 -5 7 -10 15 -10 8 0 15 -4 15 -10 0 -16 90 -12 107 5 12 12 28 14 74 9 41 -5 59 -3 59 5 0 14 46 15 55 1 3 -5 22 -10 41 -10 l35 0 -3 47 c-2 39 -7 49 -23 52 -24 4 -35 19 -35 48 0 16 -11 28 -40 43 -41 21 -120 27 -120 10 0 -6 -22 -8 -57 -4 -84 8 -103 13 -103 26 0 7 -12 23 -27 36 -26 23 -34 24 -108 19 -182 -13 -328 -86 -445 -225 l-74 -88 -39 59 c-21 33 -48 90 -60 128 -12 38 -27 69 -34 69 -8 0 -9 9 -2 32 12 42 12 198 0 198 -5 0 -12 16 -16 36 -8 48 37 144 69 145 17 0 32 23 73 107 29 59 59 123 67 142 8 19 15 29 15 23 2 -22 66 -15 153 17 45 17 100 30 122 30 23 0 75 5 117 11 71 11 76 14 87 43 l12 30 39 -38 c22 -21 52 -65 67 -97 21 -45 34 -59 49 -59 25 0 65 -39 65 -63 0 -13 9 -17 35 -17 31 0 35 3 35 26 0 40 -21 117 -38 137 -8 9 -23 17 -32 17 -10 0 -29 18 -44 40 l-26 40 35 0 c33 0 35 2 35 35 0 33 -2 35 -35 35 -33 0 -35 -2 -35 -32 l-1 -33 -42 48 c-37 42 -42 53 -39 86 4 42 10 38 -93 61 -75 16 -115 34 -115 52 0 10 -16 22 -47 32 -90 31 -140 19 -248 -58 -27 -20 -56 -36 -64 -36 -8 0 -26 -10 -39 -22 -33 -30 -27 -18 37 80 47 71 58 82 83 82 41 0 114 37 134 68 23 36 146 183 167 201 11 8 17 28 17 52 l0 39 -171 0 -170 0 -72 -73 c-40 -40 -85 -94 -102 -120 -73 -117 -114 -195 -124 -232 -37 -153 -47 -185 -65 -225 -12 -25 -32 -56 -45 -70 -13 -14 -38 -50 -57 -80 l-33 -55 -1 35 c0 74 80 664 100 740 6 19 10 45 10 58 0 22 -1 22 -160 22 l-160 0 0 -57 c0 -56 13 -364 25 -583 5 -99 4 -103 -9 -63 -7 23 -19 72 -25 110 -19 107 -49 225 -102 400 -27 89 -49 169 -49 178 0 13 -17 15 -105 15 -121 0 -118 3 -89 -100 9 -30 24 -89 34 -130 10 -41 26 -95 35 -120 9 -25 22 -74 30 -110 13 -60 12 -68 -11 -140 -13 -41 -39 -99 -58 -129 -20 -30 -37 -59 -39 -64 -2 -6 -21 -6 -47 -1 -25 4 -37 9 -28 12 10 2 21 15 24 29 8 31 -2 235 -21 438 -7 83 -17 187 -20 233 l-7 82 -248 0 c-217 0 -249 -2 -254 -16z m373 -497 c11 -37 21 -80 21 -96 0 -16 7 -48 15 -71 8 -23 15 -54 15 -68 0 -49 -17 -8 -39 93 -12 55 -30 132 -40 170 -10 39 -21 88 -24 110 -6 35 -4 33 12 -15 10 -30 28 -85 40 -123z m86 -287 c18 0 22 -4 18 -20 -9 -33 -21 -33 -38 -1 -8 17 -15 34 -14 38 0 4 3 2 6 -4 2 -7 15 -13 28 -13z"></path><path id="p12eRLMVRS" d="M2490 4980 c0 -12 9 -38 20 -60 11 -22 20 -45 20 -52 0 -8 16 -47 36 -88 20 -41 43 -102 51 -135 8 -32 32 -98 53 -145 20 -47 45 -116 54 -155 9 -38 34 -106 56 -149 22 -44 40 -81 40 -82 0 -2 -43 42 -97 97 -84 86 -100 99 -130 99 -31 0 -33 -2 -33 -33 0 -27 12 -45 80 -112 77 -76 207 -255 246 -337 15 -33 22 -38 51 -38 31 0 33 2 33 33 0 18 -17 63 -40 105 -39 72 -39 72 -15 72 14 0 25 7 27 18 3 9 8 -3 12 -28 4 -25 17 -89 27 -143 25 -130 25 -157 -1 -157 -16 0 -20 -7 -20 -32 0 -58 10 -78 39 -79 19 -1 21 -3 7 -6 -20 -5 -20 -1 0 -170 6 -49 5 -53 -15 -53 -14 0 -21 -6 -21 -20 0 -16 -7 -20 -32 -20 -50 0 -60 -11 -56 -61 3 -42 5 -44 36 -47 40 -4 62 12 63 47 2 24 2 24 6 3 l4 -22 40 22 c39 22 52 48 24 48 -8 0 -15 5 -15 10 0 6 9 10 19 10 13 0 21 8 23 23 2 15 11 23 30 25 14 2 32 10 38 18 7 8 18 14 24 14 7 0 25 14 42 31 30 32 111 77 177 99 32 10 44 9 78 -4 44 -18 173 -22 214 -6 14 5 49 28 79 50 46 35 59 40 102 39 27 0 43 -3 37 -6 -11 -4 -20 -73 -10 -73 22 0 97 35 97 45 0 9 14 15 38 17 35 3 37 5 40 41 2 26 -1 37 -10 37 -10 0 -18 29 -27 108 -7 59 -19 130 -27 157 -7 28 -17 68 -22 90 -7 38 -10 40 -47 42 -42 3 -72 -15 -94 -54 -16 -31 -14 -162 5 -216 21 -63 16 -90 -21 -100 -16 -5 -51 -19 -76 -32 l-46 -23 14 61 c8 34 18 134 23 222 9 182 30 365 42 365 8 0 12 -65 8 -123 -1 -15 1 -41 5 -57 6 -27 11 -30 44 -30 45 0 55 10 101 107 18 40 37 70 42 67 4 -3 8 -52 8 -110 l0 -104 35 0 35 0 0 56 0 56 42 -53 c76 -97 79 -99 120 -99 36 0 38 1 38 33 0 21 -7 36 -20 45 -12 7 -20 23 -20 38 0 14 -5 35 -11 46 -8 14 -8 23 0 31 6 6 11 48 11 96 l0 85 44 -43 c56 -55 83 -124 92 -235 l7 -86 38 0 c54 0 69 25 69 120 0 80 -25 315 -36 331 -3 5 -9 22 -13 37 -8 27 -7 27 30 24 38 -4 39 -3 39 28 0 19 -12 49 -30 75 -16 24 -30 47 -30 51 0 4 -17 25 -38 48 -35 38 -38 45 -33 86 l5 45 6 -37 c10 -59 35 -80 89 -76 l46 3 -1 51 -2 51 50 12 c27 6 60 11 74 11 20 0 24 5 24 29 0 16 -7 45 -15 65 l-15 36 -395 0 -395 0 0 -25 c0 -22 -4 -25 -34 -25 -19 0 -38 -5 -41 -10 -4 -6 -24 -22 -45 -35 -21 -13 -53 -45 -70 -70 -18 -26 -34 -44 -37 -42 -9 10 58 127 82 143 15 10 25 26 25 40 l0 24 -228 0 -228 0 -14 -50 c-12 -44 -17 -50 -40 -50 -30 0 -44 -14 -86 -85 l-29 -50 0 -255 c0 -267 14 -442 44 -540 16 -52 18 -55 52 -58 34 -3 37 -1 43 29 3 17 6 45 6 62 0 17 7 53 14 81 18 62 45 173 58 241 10 53 32 95 83 160 18 22 45 64 60 93 16 29 52 78 82 110 l53 57 -30 -70 c-21 -47 -45 -83 -74 -110 -24 -22 -51 -53 -59 -70 -47 -97 -63 -294 -28 -369 47 -102 72 -167 86 -230 17 -71 15 -93 -5 -57 -8 16 -20 21 -50 21 -37 0 -39 -2 -46 -36 -3 -19 -4 -50 -1 -69 3 -19 3 -59 0 -89 -6 -53 -7 -56 -42 -66 -53 -17 -132 -59 -163 -88 l-28 -26 0 104 c0 57 -9 172 -21 255 -38 284 -60 418 -70 437 -7 13 -21 18 -49 18 -43 0 -43 0 -58 -89 l-7 -43 -18 83 c-36 176 -57 290 -62 356 -4 37 -12 84 -19 103 -16 43 -46 178 -53 243 l-5 47 -144 0 c-138 0 -144 -1 -144 -20z"></path><path id="pMzRnlqOj" d="M4924 4728 c-53 -57 -64 -83 -64 -149 l0 -62 -37 7 c-21 4 -57 10 -80 13 l-43 6 0 -36 c0 -44 10 -50 108 -67 40 -8 75 -17 78 -22 4 -5 -4 -20 -16 -33 -22 -23 -34 -26 -172 -41 -58 -6 -58 -6 -58 -40 l0 -34 50 0 c50 0 50 0 44 -27 -12 -57 -16 -64 -45 -78 -28 -15 -29 -15 -29 7 0 53 -11 68 -46 68 l-34 0 0 -51 c0 -61 -10 -81 -67 -136 -24 -24 -46 -55 -49 -71 -4 -22 -15 -32 -42 -42 -21 -7 -48 -21 -61 -31 -13 -11 -40 -19 -62 -19 -20 0 -50 -7 -66 -15 -15 -8 -40 -17 -55 -20 -16 -3 -28 -12 -28 -20 0 -10 -11 -15 -35 -15 -42 0 -55 -23 -55 -96 0 -43 1 -44 33 -44 30 0 34 4 52 50 15 39 24 50 41 50 12 0 66 9 120 20 108 22 194 67 194 101 0 10 4 19 9 19 5 0 34 24 63 53 29 29 78 66 107 83 54 29 129 105 246 253 28 34 56 69 63 76 9 10 12 64 12 194 l0 181 -23 0 c-13 0 -36 -14 -53 -32z"></path><path id="p1CdLsi4No" d="M4580 4467 c0 -47 34 -77 89 -77 l42 0 -3 37 c-3 42 -41 71 -95 72 -31 1 -33 -1 -33 -32z"></path><path id="pHNPxgCth" d="M3291 4123 c-7 -21 -15 -73 -18 -115 l-6 -78 40 0 c48 0 49 1 59 138 l7 92 -35 0 c-31 0 -36 -4 -47 -37z"></path><path id="pnKBi75LL" d="M3460 3471 c0 -27 3 -31 28 -31 51 0 73 11 70 34 -2 17 -11 22 -50 24 -47 3 -48 3 -48 -27z"></path><path id="psc1DskGi" d="M1970 2425 l0 -35 95 0 95 0 0 35 0 35 -95 0 -95 0 0 -35z"></path><path id="p18q1zxBY0" d="M1838 2433 c-13 -3 -18 -15 -18 -39 0 -30 3 -34 28 -34 57 0 72 10 72 46 0 32 -2 34 -32 33 -18 -1 -41 -3 -50 -6z"></path><path id="pkzvVaV1D" d="M2270 2290 c0 -16 8 -45 17 -65 14 -30 22 -35 50 -35 30 0 33 3 33 30 0 16 -8 45 -17 65 -14 30 -22 35 -50 35 -30 0 -33 -3 -33 -30z"></path><path id="pjMIL3NJF" d="M1434 2188 c10 -128 12 -136 42 -130 14 2 24 0 24 -7 0 -6 5 -11 11 -11 12 0 7 136 -7 208 -6 29 -10 32 -42 32 l-35 0 7 -92z"></path><path id="pm0BquivS" d="M2580 2235 c0 -33 2 -35 35 -35 33 0 35 2 35 35 0 33 -2 35 -35 35 -33 0 -35 -2 -35 -35z"></path><path id="phK68izhc" d="M1686 2218 c-3 -13 -9 -53 -12 -90 -5 -47 -11 -68 -20 -68 -9 0 -14 -12 -14 -35 0 -28 4 -35 20 -35 11 0 20 -7 20 -15 0 -19 78 -105 95 -105 6 0 39 -14 73 -31 58 -28 68 -30 144 -26 120 7 248 40 248 63 0 7 11 15 24 18 24 6 36 37 36 92 0 20 -5 24 -32 24 -18 0 -55 -7 -81 -15 -37 -11 -54 -12 -70 -4 -13 8 -47 9 -95 5 -89 -8 -208 2 -226 19 -7 7 -21 15 -32 17 -21 4 -24 46 -9 151 l8 57 -35 0 c-28 0 -37 -5 -42 -22z"></path><path id="pExTepMT9" d="M2757 2203 c-4 -3 -7 -32 -7 -64 l0 -57 64 -7 c73 -8 86 -4 86 29 0 58 -12 86 -36 86 -13 0 -24 5 -24 10 0 11 -73 14 -83 3z"></path><path id="p5uxRoFey" d="M1954 2164 c-12 -18 -25 -24 -50 -24 -32 0 -34 -2 -34 -35 0 -31 3 -35 26 -35 14 0 33 -7 41 -16 13 -13 35 -15 118 -12 93 3 106 6 151 33 44 28 49 35 52 70 l3 40 -146 2 c-144 2 -146 1 -161 -23z"></path><path id="p4xo2aw96" d="M2630 2017 c0 -29 5 -36 38 -51 20 -10 71 -21 115 -24 l77 -5 0 35 c0 35 0 35 -54 41 -30 3 -68 12 -84 21 -17 9 -45 16 -62 16 -27 0 -30 -3 -30 -33z"></path><path id="ppfJ9E5Fv" d="M1492 1963 c-27 -53 -39 -100 -62 -253 -26 -165 -28 -330 -6 -425 16 -68 100 -251 158 -346 15 -25 28 -56 28 -69 0 -19 -4 -22 -30 -18 -53 8 -16 -13 82 -47 l93 -31 30 -61 c17 -33 43 -75 58 -93 16 -18 26 -39 23 -47 -3 -8 2 -16 12 -19 9 -3 33 -14 52 -24 19 -10 60 -23 90 -29 30 -7 80 -23 110 -36 45 -19 56 -21 58 -9 3 12 8 12 32 -3 27 -15 32 -15 94 1 41 12 79 16 101 12 28 -6 35 -4 35 9 0 8 5 15 10 15 6 0 10 -9 10 -20 0 -12 7 -20 18 -20 35 0 223 50 262 70 21 11 64 29 94 40 65 25 86 45 55 53 -30 8 -20 35 23 61 57 32 208 138 235 164 13 12 28 22 34 22 5 0 21 7 34 16 30 19 35 63 8 60 -11 0 -17 6 -17 17 3 27 -34 21 -61 -10 -13 -16 -27 -25 -31 -20 -4 4 2 17 14 30 26 27 31 87 7 87 -10 0 -15 10 -15 34 0 26 5 35 21 39 19 5 20 11 16 102 -2 67 1 104 10 122 7 14 13 41 13 59 0 32 -2 34 -33 34 -30 0 -35 -5 -65 -65 -34 -70 -42 -125 -18 -125 17 0 22 -28 18 -87 -4 -40 -6 -43 -39 -49 -21 -4 -39 -2 -46 5 -20 20 -73 13 -85 -11 l-11 -23 0 23 c-1 18 -7 22 -36 22 -22 0 -38 -6 -41 -15 -4 -8 -15 -15 -25 -15 -10 0 -19 -5 -19 -10 0 -6 -8 -5 -20 2 -11 7 -20 18 -20 25 0 7 -4 13 -10 13 -5 0 -10 9 -10 19 0 15 -12 21 -63 30 -84 15 -109 14 -133 -4 -22 -16 -94 -20 -94 -5 0 6 -23 10 -56 9 -36 -2 -59 2 -64 11 -5 8 -21 11 -44 8 -25 -3 -36 0 -36 9 0 8 -12 13 -31 13 -41 0 -109 20 -109 33 0 6 -25 7 -63 3 -48 -6 -74 -3 -105 9 -23 10 -42 21 -42 26 0 5 -9 9 -20 9 -38 0 -104 42 -157 99 -29 31 -53 59 -53 62 0 4 -17 33 -38 65 -71 107 -85 167 -86 363 -1 127 -12 148 -44 84z"></path><path id="p136L0DGCB" d="M3284 1006 c-33 -51 4 -99 47 -60 23 20 25 44 4 44 -8 0 -15 9 -15 20 0 27 -16 25 -36 -4z"></path></g></g><g id="l1uIqO0R1Ul6PDR75NkjuaI" fill="rgb(57,33,25)" style="transform: none;"><g style="transform: none;"><path id="pdxDCdkDx" d="M2051 4576 c2 -1 19 -8 37 -14 26 -9 32 -8 32 4 0 10 -11 14 -37 14 -20 0 -34 -2 -32 -4z"></path><path id="pQERtQsN2" d="M1928 4546 c-8 -7 -24 -17 -36 -20 -12 -4 -22 -14 -22 -22 0 -11 13 -6 48 17 60 41 58 39 39 39 -8 0 -22 -6 -29 -14z"></path><path id="pPOPuAqk4" d="M1958 4518 c-50 -28 -83 -68 -57 -68 22 0 6 -29 -17 -32 -23 -3 -32 -17 -75 -113 -27 -60 -52 -119 -55 -130 -3 -11 -25 -54 -47 -95 -23 -41 -42 -77 -43 -80 -12 -38 -18 -50 -24 -50 -5 0 -6 9 -3 20 12 44 -15 16 -51 -55 -36 -70 -38 -80 -33 -137 3 -33 10 -64 16 -67 11 -7 8 -133 -4 -164 -10 -25 4 -107 18 -107 7 0 21 -23 31 -52 10 -29 34 -75 52 -102 19 -28 34 -61 34 -73 0 -56 39 -26 163 126 79 96 205 163 359 191 71 13 113 7 104 -16 -12 -31 14 -43 119 -56 105 -13 126 -12 135 3 7 11 17 10 54 -9 44 -21 58 -43 36 -57 -5 -3 -10 -15 -10 -25 0 -24 -20 -37 -31 -19 -6 10 -10 8 -17 -10 -7 -19 -10 -21 -20 -8 -10 12 -19 12 -65 0 -28 -7 -53 -18 -55 -23 -2 -6 -13 -10 -23 -10 -11 0 -17 5 -14 10 3 6 -3 10 -14 10 -12 0 -21 7 -21 15 0 21 -83 14 -110 -10 -11 -10 -20 -14 -20 -10 0 4 -9 0 -19 -9 -15 -13 -20 -14 -24 -4 -4 9 -6 7 -6 -4 -1 -11 -6 -15 -15 -12 -8 3 -24 -4 -35 -15 -12 -12 -27 -21 -34 -21 -7 0 -50 -16 -96 -35 -45 -19 -94 -35 -107 -35 -50 0 -124 -62 -161 -135 -14 -27 -29 -52 -34 -55 -4 -3 -15 -22 -23 -42 -9 -20 -33 -57 -55 -82 -22 -26 -59 -84 -81 -130 -22 -46 -52 -94 -65 -106 -14 -13 -25 -33 -26 -44 0 -12 -5 -30 -10 -41 -7 -14 -8 -6 -5 31 l5 51 -40 -7 c-22 -4 -43 -11 -47 -15 -4 -3 -8 -43 -8 -88 -1 -71 -7 -97 -43 -189 -22 -59 -41 -112 -41 -118 0 -7 16 -11 45 -9 36 2 50 -2 67 -19 l22 -21 -51 -58 c-27 -32 -60 -59 -72 -61 -22 -3 -22 -4 -5 -23 25 -28 68 -23 124 13 l51 33 -6 50 c-3 28 -9 70 -12 95 -3 25 -3 42 0 39 17 -15 40 -230 42 -384 1 -93 8 -192 14 -220 14 -56 51 -135 87 -182 13 -17 24 -35 24 -40 0 -4 24 -33 53 -64 53 -57 119 -99 157 -99 11 0 20 -4 20 -9 0 -28 150 -57 193 -38 10 5 17 4 17 -3 0 -5 6 -10 13 -10 7 0 30 -9 52 -20 45 -23 61 -25 68 -7 3 6 6 2 6 -10 1 -25 28 -31 62 -13 15 9 19 7 19 -5 0 -9 6 -15 13 -13 6 1 22 -3 33 -10 17 -9 25 -8 40 3 24 18 38 19 31 1 -9 -24 24 -30 66 -11 10 4 24 2 33 -6 10 -8 18 -9 22 -3 17 25 82 58 67 34 -4 -6 7 -8 29 -5 34 4 36 3 30 -20 -3 -14 -2 -25 4 -25 5 0 12 9 15 20 7 29 27 25 27 -6 0 -16 4 -23 11 -18 8 4 9 -1 4 -15 -6 -19 -4 -21 19 -15 24 6 26 4 27 -27 1 -19 3 -26 6 -16 3 11 11 16 19 13 8 -3 20 3 26 14 20 31 30 23 13 -10 -17 -33 -18 -40 -7 -40 4 0 13 15 20 33 6 18 18 41 25 50 10 15 12 11 8 -29 -2 -37 0 -45 10 -38 12 6 12 5 0 -9 -7 -9 -20 -17 -29 -17 -8 0 -13 -3 -9 -6 16 -16 59 8 73 41 8 19 18 35 23 35 6 0 13 10 16 21 6 19 8 20 23 5 15 -14 14 -18 -13 -47 -24 -25 -25 -29 -7 -18 12 8 22 17 22 21 0 5 11 8 25 8 13 0 29 8 35 18 9 14 10 11 6 -15 -7 -40 3 -42 27 -6 l18 28 -6 -27 c-5 -27 -4 -28 35 -28 l41 0 -2 56 c-1 36 2 59 10 64 8 4 12 24 10 49 -3 33 2 49 22 74 14 18 32 49 39 70 8 20 20 37 27 37 8 0 13 13 13 35 0 25 -4 35 -15 35 -13 0 -14 4 -3 28 8 15 12 42 10 60 -3 28 -7 32 -32 32 -23 0 -33 -7 -45 -30 -9 -16 -23 -30 -33 -30 -24 -1 -113 -192 -112 -242 0 -20 6 -39 13 -41 6 -3 -2 -6 -19 -6 -17 -1 -37 -8 -44 -16 -7 -8 -21 -15 -31 -15 -10 0 -25 -12 -33 -27 -11 -20 -15 -23 -16 -10 0 27 -60 22 -87 -7 -13 -13 -23 -29 -23 -35 0 -6 -6 -11 -14 -11 -8 0 -16 -6 -19 -12 -3 -7 -4 26 -3 74 0 47 -2 89 -5 93 -4 3 -23 9 -43 12 -29 4 -49 -1 -96 -26 -49 -26 -60 -29 -60 -16 0 13 -9 16 -37 15 -94 -5 -113 -1 -113 21 0 18 -5 20 -47 17 -35 -2 -53 2 -68 15 -76 69 -201 147 -234 147 -17 0 -61 42 -61 58 0 9 -12 27 -27 40 -19 15 -24 25 -15 28 6 3 12 14 12 23 0 10 11 28 25 41 17 16 27 39 31 72 5 39 12 51 29 58 13 5 26 13 29 19 4 5 31 21 61 35 30 14 55 31 55 39 0 9 21 19 56 27 40 10 58 20 64 35 4 11 15 27 24 34 9 7 16 22 16 32 0 12 7 19 19 19 17 0 20 10 26 76 9 93 1 157 -25 201 -11 19 -20 45 -20 58 0 24 -30 83 -66 128 -14 17 -32 27 -48 27 -16 0 -26 6 -26 15 0 10 -11 15 -35 15 -28 0 -35 -4 -35 -20 0 -16 -7 -20 -30 -20 -33 0 -43 -25 -12 -33 16 -4 15 -5 -1 -6 -27 -2 -17 -34 12 -41 30 -7 43 -48 33 -99 -8 -35 -9 -36 -57 -39 -27 -2 -55 -8 -63 -14 -18 -15 -129 -10 -164 8 -15 8 -36 14 -46 14 -38 0 -29 63 12 93 14 9 99 33 149 42 39 6 51 30 20 38 -17 4 -17 5 0 6 9 0 17 8 17 17 0 15 -9 16 -72 11 -154 -14 -192 -37 -246 -149 -22 -46 -43 -91 -46 -100 -10 -31 -32 -19 -76 40 -56 73 -76 138 -60 190 50 158 69 190 180 299 59 57 117 111 129 120 20 14 22 22 20 82 -4 72 3 91 30 91 10 0 26 9 35 19 22 24 103 64 176 87 30 9 59 20 64 25 6 5 26 9 47 9 20 0 62 13 94 29 43 22 63 27 76 20 33 -17 102 -10 139 14 19 13 61 29 93 36 48 10 57 16 57 34 0 19 3 18 21 -10 12 -18 27 -33 34 -33 7 0 15 -7 19 -15 3 -9 18 -15 39 -15 31 0 35 4 41 31 15 78 9 98 -39 127 -25 15 -45 32 -45 38 0 26 -112 92 -220 129 -101 36 -441 60 -467 34 -5 -5 -30 -9 -54 -7 -41 3 -47 7 -82 58 -21 30 -44 64 -52 76 -10 13 -16 54 -19 119 -3 95 -4 100 -32 122 -16 13 -41 23 -55 23 -14 0 -28 3 -31 6 -8 7 14 76 29 92 7 7 13 24 13 38 0 13 4 24 10 24 5 0 12 11 16 25 6 23 11 25 63 25 80 0 101 8 101 36 l0 23 -57 -20 c-31 -10 -57 -19 -57 -19 -1 0 -2 15 -3 33 -3 37 24 127 38 127 5 0 14 11 19 24 5 14 21 32 35 42 14 9 25 21 25 28 0 21 61 46 111 46 35 0 49 4 49 14 0 7 -10 16 -22 20 -46 12 -84 5 -140 -26z m781 -1184 c3 -16 1 -17 -13 -5 -19 16 -21 34 -3 29 6 -3 14 -13 16 -24z m-650 -1196 c11 -11 18 -25 15 -30 -8 -12 20 -10 34 4 8 8 8 15 1 24 -7 9 2 13 41 16 61 4 60 -7 -4 -46 -49 -31 -137 -45 -191 -32 -30 8 -31 12 -5 54 16 26 26 32 54 32 23 0 42 -7 55 -22z m-382 -70 c-2 -13 -4 -5 -4 17 -1 22 1 32 4 23 2 -10 2 -28 0 -40z m76 -130 c35 -18 84 -26 119 -19 32 7 31 8 -22 15 -59 9 -127 33 -117 42 3 3 14 1 25 -5 10 -5 29 -7 40 -4 12 3 28 0 35 -5 14 -12 130 -10 183 2 22 6 35 4 46 -7 13 -14 23 -14 79 -2 35 7 65 12 67 10 5 -4 -88 -32 -132 -40 -21 -3 -36 -9 -33 -12 3 -3 30 0 59 7 101 23 128 27 128 20 0 -5 -14 -13 -32 -19 -17 -6 -28 -14 -25 -18 17 -16 -129 -55 -216 -57 -46 -2 -70 3 -114 26 -31 15 -61 28 -68 28 -16 0 -95 85 -95 102 0 7 12 -2 26 -20 14 -17 35 -37 47 -44z m1344 -621 c-8 -19 -20 -38 -26 -42 -6 -3 -1 14 11 39 25 53 36 55 15 3z"></path><path id="pvUqzXwZ" d="M1736 4240 c-9 -22 -16 -49 -16 -60 0 -11 -4 -20 -10 -20 -5 0 -12 -11 -16 -25 -3 -14 -10 -25 -14 -25 -4 0 -13 -13 -20 -29 -6 -16 -20 -38 -31 -50 -26 -27 -16 -27 22 1 47 35 142 248 111 248 -5 0 -17 -18 -26 -40z"></path><path id="p4gu0nyGn" d="M2118 4273 c-33 -8 -20 -33 17 -33 28 0 35 4 35 20 0 20 -14 23 -52 13z"></path><path id="p172iN4Mq2" d="M2477 4181 c7 -26 -5 -27 -23 -3 -12 15 -13 13 -14 -19 0 -40 11 -49 61 -49 26 0 29 -3 29 -31 0 -22 13 -46 46 -84 41 -48 159 -251 246 -422 30 -59 35 -63 66 -63 l35 0 -5 45 c-9 76 -152 353 -239 463 -67 84 -76 92 -109 92 -31 1 -37 5 -56 42 -23 45 -46 63 -37 29z"></path><path id="pdBccWODW" d="M3048 3443 c-3 -21 -1 -39 3 -41 4 -2 5 -10 2 -18 -4 -10 3 -14 26 -14 21 0 31 5 31 15 0 8 -8 15 -17 15 -14 0 -13 3 5 16 12 8 22 26 22 40 0 30 -25 32 -35 2 l-8 -23 -4 23 c-7 34 -20 26 -25 -15z"></path><path id="pC7m34mJm" d="M3508 3469 c13 -5 21 -13 18 -18 -3 -5 3 -7 14 -4 36 10 23 33 -17 32 -34 0 -35 -1 -15 -10z"></path><path id="pIh3o9kU3" d="M2886 3368 c-3 -29 -8 -74 -12 -100 -5 -40 -3 -48 10 -48 9 0 16 -4 16 -10 0 -5 14 -10 30 -10 38 0 55 36 45 95 -3 22 -9 59 -12 83 -5 40 -7 42 -38 42 -33 0 -33 -1 -39 -52z m51 -125 c-15 -15 -17 -15 -23 1 -8 21 16 40 30 26 7 -7 4 -16 -7 -27z"></path><path id="pp6hcXAYm" d="M2910 3155 c0 -34 1 -35 40 -35 44 0 51 13 20 32 -11 7 -20 18 -20 25 0 7 -9 13 -20 13 -16 0 -20 -7 -20 -35z"></path><path id="pca2vj3A8" d="M2346 3079 c-18 -90 -9 -99 102 -99 l62 0 0 40 c0 29 -4 40 -15 40 -9 0 -18 7 -21 15 -4 8 -14 15 -24 15 -11 0 -22 5 -25 10 -3 6 -21 10 -39 10 -29 0 -34 -4 -40 -31z"></path><path id="p7weObrOz" d="M3010 3013 c0 -22 14 -66 36 -110 30 -61 40 -73 61 -73 30 0 28 7 -30 133 -44 94 -67 111 -67 50z"></path><path id="pP4JdTXlG" d="M2170 2965 c-30 -8 -84 -14 -120 -15 -76 0 -90 -10 -90 -60 0 -95 49 -172 118 -186 46 -9 91 -57 98 -105 6 -34 10 -39 33 -39 15 0 32 -5 38 -11 5 -5 32 -9 59 -7 44 3 49 5 52 29 2 16 12 31 28 37 13 7 24 18 24 27 0 11 12 15 50 15 45 0 52 3 60 26 6 14 10 41 10 60 0 30 -5 37 -35 50 -59 24 -125 13 -125 -22 0 -12 -5 -10 -19 7 -10 13 -33 28 -51 34 -31 10 -30 11 44 24 l76 14 0 33 0 34 -65 0 -65 0 0 35 c0 33 -2 35 -32 34 -18 0 -58 -7 -88 -14z"></path><path id="pQstskan1" d="M2655 2902 c-25 -6 -31 -13 -33 -41 -4 -41 8 -51 69 -51 55 0 72 15 67 62 -3 30 -6 33 -38 35 -19 0 -48 -2 -65 -5z"></path><path id="pkxbjYTCk" d="M3020 2459 c0 -22 12 -44 40 -77 22 -25 51 -67 63 -94 20 -43 25 -48 54 -48 30 0 33 3 33 31 0 40 -41 125 -85 177 -30 34 -43 42 -71 42 -31 0 -34 -2 -34 -31z"></path><path id="p18Zw1GnTD" d="M2597 2328 c-9 -24 -20 -88 -23 -143 -6 -88 -4 -107 13 -146 23 -52 63 -81 135 -99 31 -8 48 -18 51 -31 4 -16 14 -19 60 -19 85 0 147 11 147 26 0 8 11 16 25 20 20 5 25 12 25 39 l0 32 -127 5 c-177 8 -219 27 -60 27 71 1 117 5 117 11 0 6 11 10 24 10 44 0 56 10 56 47 l0 36 -44 -5 c-43 -5 -44 -5 -62 36 -19 40 -20 41 -76 44 -50 3 -58 6 -58 22 0 16 -7 20 -38 20 -21 0 -48 -7 -60 -16 -21 -15 -22 -14 -23 18 -1 18 0 50 1 71 1 36 1 37 -33 37 -31 0 -36 -4 -50 -42z m203 -169 c-7 -11 -14 -18 -17 -15 -8 8 5 36 17 36 7 0 7 -6 0 -21z m60 -21 c0 -10 0 -21 1 -25 0 -4 -4 -9 -9 -11 -5 -1 -12 10 -14 26 -3 19 0 29 9 29 7 0 13 -9 13 -19z m-42 -165 c-10 -2 -26 -2 -35 0 -10 3 -2 5 17 5 19 0 27 -2 18 -5z"></path><path id="pXdUPM8sI" d="M3250 1260 c0 -53 2 -60 19 -60 29 0 34 16 21 70 -18 73 -40 67 -40 -10z"></path><path id="pbZBBzJbo" d="M3292 1018 c-16 -16 -15 -28 2 -28 7 0 16 9 19 20 6 23 -3 26 -21 8z"></path><path id="p1G628fbJS" d="M2780 949 c0 -18 39 -71 40 -54 0 6 -9 24 -20 40 -13 20 -20 24 -20 14z"></path></g></g><g id="l6HfWcRYkT1WgXEC2efrWFx" fill="rgb(88,46,35)" style="transform: none;"><g style="transform: none;"><path id="pVqgH2bRX" d="M2020 4531 c0 -17 6 -21 36 -21 28 0 35 3 32 18 -2 11 -14 18 -36 20 -27 3 -32 0 -32 -17z"></path><path id="pNeu1Cr5s" d="M1830 4344 c-23 -54 -25 -74 -6 -74 7 0 19 20 26 46 7 25 19 48 27 51 20 8 16 23 -7 23 -13 0 -25 -14 -40 -46z"></path><path id="piF5MdFoi" d="M1790 4225 c0 -33 2 -35 35 -35 19 0 35 5 35 10 0 6 -4 10 -10 10 -5 0 -12 11 -16 25 -4 16 -13 25 -25 25 -15 0 -19 -7 -19 -35z"></path><path id="p11ExwPtag" d="M2430 4156 c0 -37 12 -46 61 -46 19 0 29 5 29 15 0 20 -22 65 -32 65 -11 0 -10 -7 3 -31 9 -18 8 -19 -9 -10 -11 6 -22 17 -26 26 -10 27 -26 16 -26 -19z"></path><path id="peJPME1Hi" d="M1710 4153 c1 -27 1 -27 15 -9 19 25 19 36 0 36 -10 0 -15 -10 -15 -27z"></path><path id="pbTDu8xUE" d="M1736 4127 c-52 -109 -68 -173 -43 -174 89 -6 116 -29 121 -103 1 -30 -2 -62 -7 -71 -7 -11 -3 -30 13 -65 13 -27 22 -52 22 -57 -1 -4 2 -6 7 -5 5 2 24 -19 42 -47 l34 -50 73 -3 c41 -2 79 1 85 6 46 35 432 -18 492 -68 6 -5 28 -16 48 -25 36 -15 37 -15 37 7 -1 25 -45 58 -103 77 -43 15 -67 49 -67 95 0 33 -3 36 -40 46 -22 6 -40 17 -40 24 0 7 -12 23 -26 37 -14 13 -33 38 -41 54 -9 17 -19 32 -23 35 -4 3 -15 20 -24 37 -9 18 -28 40 -42 49 -30 20 -64 83 -64 119 0 29 -16 49 -47 59 -11 4 -28 15 -38 26 -25 27 -77 27 -90 -1 -6 -13 -31 -28 -65 -40 -71 -24 -71 -24 -124 9 -36 21 -45 33 -46 55 0 42 -17 32 -44 -26z"></path><path id="pVBnapLe2" d="M1676 4096 c-3 -13 -9 -32 -13 -43 -6 -15 -5 -16 9 -5 24 19 41 72 24 72 -8 0 -17 -11 -20 -24z"></path><path id="p1EwUQhuFu" d="M2610 3984 c0 -50 17 -93 71 -177 29 -45 55 -84 59 -87 4 -3 10 -15 14 -27 4 -13 14 -23 22 -23 8 0 14 -10 14 -25 0 -18 5 -25 19 -25 15 0 20 -10 26 -46 3 -25 15 -66 26 -91 20 -46 23 -100 13 -190 -7 -57 -24 -73 -24 -23 0 17 -4 30 -9 30 -6 0 -11 17 -13 38 -2 30 -7 38 -25 40 -13 2 -23 8 -23 13 0 5 -7 9 -15 9 -8 0 -15 9 -15 20 0 16 -7 20 -37 20 -34 0 -35 -1 -20 -18 10 -10 17 -23 17 -28 0 -5 21 -22 46 -37 39 -23 45 -31 40 -50 -20 -65 -18 -77 8 -77 22 0 26 -4 26 -30 0 -28 3 -30 35 -30 33 0 35 2 36 33 0 17 3 41 5 52 2 11 8 47 13 80 4 33 9 47 10 32 2 -52 23 -117 37 -117 18 0 18 18 -1 132 -18 109 -45 208 -57 208 -4 0 -8 11 -8 25 0 18 -5 25 -20 25 -15 0 -20 7 -20 25 0 16 -6 25 -15 25 -9 0 -15 9 -15 24 0 14 -7 31 -15 40 -8 8 -15 18 -15 22 0 4 -28 59 -61 121 -45 81 -67 113 -80 113 -11 0 -19 -3 -19 -6 0 -3 20 -31 44 -62 25 -32 79 -127 120 -212 128 -260 97 -215 -98 142 -33 59 -67 115 -77 124 -18 16 -19 16 -19 -12z"></path><path id="pq7mFFk87" d="M2610 3321 c0 -13 -5 -19 -14 -15 -8 3 -17 1 -21 -5 -3 -6 -15 -11 -26 -11 -11 0 -38 -12 -60 -27 -36 -24 -44 -25 -73 -15 -49 18 -79 15 -129 -13 -24 -14 -65 -27 -91 -29 -25 -2 -51 -8 -58 -13 -7 -6 -38 -18 -68 -27 -73 -23 -154 -63 -176 -87 -9 -10 -25 -19 -34 -19 -33 0 -43 -26 -35 -94 6 -59 5 -65 -16 -79 -12 -9 -70 -63 -129 -120 -98 -97 -109 -111 -137 -183 -61 -157 -65 -181 -39 -266 19 -62 93 -158 122 -158 22 0 24 -4 24 -45 0 -26 5 -45 11 -45 6 0 9 6 6 14 -3 8 0 17 7 19 7 3 16 27 20 54 4 26 26 84 49 128 49 92 83 117 182 134 77 14 209 14 255 1 25 -7 39 -6 54 4 18 11 23 10 42 -13 31 -38 58 -93 55 -113 -1 -10 9 -37 22 -60 33 -58 39 -90 31 -166 -7 -66 -24 -69 -24 -4 0 105 -71 250 -152 316 -33 25 -48 30 -117 34 -85 5 -189 -9 -252 -34 -32 -13 -44 -27 -69 -78 -30 -60 -59 -174 -60 -228 0 -24 -4 -28 -27 -28 -39 0 -53 -12 -46 -38 3 -12 9 -19 14 -17 4 3 6 12 3 19 -7 18 16 32 26 16 15 -25 40 -2 42 37 l1 38 6 -45 c6 -41 7 -37 14 41 7 82 36 185 37 131 0 -18 5 -22 28 -20 15 1 36 -3 48 -10 12 -6 47 -13 78 -15 31 -3 60 -7 63 -11 14 -14 59 -5 71 14 10 16 19 19 50 14 60 -9 75 9 76 94 1 40 4 72 8 72 13 0 82 -94 103 -139 14 -33 16 -46 7 -49 -6 -2 -12 -8 -12 -13 0 -6 5 -7 11 -3 33 20 40 -93 9 -144 -11 -18 -34 -41 -52 -52 -39 -24 -37 -24 26 -5 l50 15 -21 -22 c-11 -13 -23 -30 -26 -39 -3 -9 -22 -19 -41 -23 -56 -11 -46 -33 17 -41 47 -6 61 -3 108 20 29 15 78 36 109 47 l55 18 30 -36 c30 -35 33 -37 130 -46 57 -6 100 -7 102 -2 2 5 23 8 48 6 26 -3 45 0 45 6 0 6 14 13 30 17 17 4 30 12 30 19 0 7 18 19 40 26 36 12 40 17 40 47 0 31 -2 33 -34 33 -45 0 -55 25 -16 39 52 17 71 44 77 105 l6 56 -52 0 c-29 0 -61 -5 -72 -10 -18 -10 -19 -7 -19 50 l0 60 -125 -3 c-140 -2 -139 -3 -91 70 27 41 74 63 152 70 l64 6 0 33 0 34 -59 0 c-58 0 -60 1 -66 30 -5 21 0 40 19 73 20 33 26 58 26 100 0 56 0 57 -29 57 l-30 0 21 48 c16 34 22 68 22 122 l1 75 -46 3 -46 3 -21 -48 c-26 -62 -46 -79 -102 -89 -50 -9 -57 -8 -118 8 l-43 11 40 18 c57 25 81 53 81 93 0 25 -6 38 -25 50 -13 9 -29 16 -35 16 -17 0 -98 39 -105 50 -3 5 0 10 8 10 7 0 37 7 66 16 38 11 54 21 61 40 6 14 17 24 30 24 11 0 20 5 20 10 0 6 16 10 35 10 34 0 35 2 35 36 0 31 -3 36 -20 31 -10 -3 -18 0 -17 5 1 6 -4 13 -10 15 -8 3 -13 -4 -13 -16z m-189 -261 c9 0 19 -7 23 -15 3 -8 12 -15 21 -15 8 0 15 -5 15 -11 0 -11 -94 -9 -104 2 -2 2 -2 17 1 32 4 20 9 25 16 18 6 -6 19 -11 28 -11z m-163 -142 l-3 -33 70 -4 70 -3 -55 -14 c-30 -7 -80 -13 -111 -14 -30 0 -63 -6 -72 -13 -15 -11 -8 -16 60 -41 51 -19 89 -41 110 -63 18 -18 37 -33 42 -33 6 0 11 -11 11 -25 0 -29 -22 -42 -106 -65 l-62 -17 -6 38 c-7 46 -53 94 -98 103 -48 9 -93 56 -107 112 -8 32 -9 50 -2 57 6 6 40 12 75 14 50 2 143 19 184 32 1 1 1 -14 0 -31z m459 -65 c-10 -11 -24 -13 -43 -9 -30 8 -22 22 16 28 35 6 45 -2 27 -19z m-129 -68 c2 -1 -9 -5 -23 -7 -14 -3 -33 1 -42 8 -16 11 -13 12 22 7 22 -3 41 -7 43 -8z m-96 -66 c-4 -33 -16 -43 -45 -35 -33 8 -54 61 -29 75 11 6 27 5 47 -3 23 -10 29 -19 27 -37z m238 5 c0 -13 -25 -52 -55 -84 -25 -27 -35 -50 -45 -102 -6 -36 -9 -80 -5 -96 8 -37 -31 -122 -56 -122 -22 0 -45 -63 -54 -142 -4 -32 -9 -58 -13 -58 -32 1 -57 55 -53 118 1 29 -5 78 -14 108 -22 78 -12 140 29 179 28 26 39 29 96 30 l65 0 3 38 c4 44 -16 66 -58 67 -25 1 -25 1 5 17 61 33 155 62 155 47z m-405 -144 c-3 -5 -15 -10 -25 -10 -10 0 -22 5 -25 10 -4 6 7 10 25 10 18 0 29 -4 25 -10z m297 -388 c-3 -79 -1 -105 13 -131 23 -45 84 -70 187 -77 100 -6 158 -15 141 -21 -7 -3 -13 -11 -13 -18 0 -21 -70 -24 -110 -5 -19 9 -57 23 -85 29 -118 29 -162 91 -150 215 6 65 13 106 19 106 1 0 0 -44 -2 -98z m140 26 c-22 -22 -13 -25 68 -30 82 -5 105 -13 81 -27 -10 -7 -10 -13 -2 -29 10 -19 8 -22 -26 -31 -21 -6 -45 -12 -53 -13 -8 -1 12 -4 45 -8 56 -6 54 -7 -35 -8 -106 -2 -128 6 -156 60 -8 16 -14 31 -12 33 20 20 83 65 91 65 7 0 7 -4 -1 -12z"></path><path id="pscdLW5nj" d="M2765 3319 c-4 -6 -5 -13 -2 -16 7 -7 27 6 27 18 0 12 -17 12 -25 -2z"></path><path id="p551iCFMF" d="M2910 3145 c0 -28 4 -35 19 -35 14 0 21 -9 26 -32 9 -45 29 -89 80 -177 14 -24 28 -55 31 -68 5 -18 13 -23 40 -23 38 0 38 7 -4 74 -31 50 -63 126 -57 135 2 4 -13 37 -33 72 -26 44 -43 63 -55 61 -11 -2 -15 2 -11 13 4 10 0 15 -15 15 -17 0 -21 -6 -21 -35z"></path><path id="p1mIsIukv" d="M1401 2611 c-11 -7 -9 -11 8 -21 27 -14 51 -7 51 15 0 17 -36 20 -59 6z"></path><path id="p02kDVqbq" d="M3070 2397 c0 -19 3 -37 8 -39 11 -5 69 -129 77 -168 5 -19 8 -59 7 -87 -2 -52 -2 -53 26 -53 34 0 52 16 52 46 0 12 7 27 15 34 9 7 15 29 15 51 0 31 -4 39 -19 39 -13 0 -20 10 -25 33 -7 35 -56 140 -68 145 -5 2 -8 10 -8 18 0 9 -11 14 -31 14 -28 0 -30 -2 -18 -17 11 -15 10 -14 -9 1 l-22 19 0 -36z"></path><path id="phWvAW5C9" d="M1409 2400 c-10 -6 -22 -34 -29 -62 -13 -60 -30 -108 -38 -108 -2 0 -11 8 -19 18 -8 9 -11 11 -7 3 3 -7 0 -17 -7 -22 -10 -6 -15 -36 -17 -102 -4 -89 -2 -96 19 -110 29 -21 46 -11 107 62 57 68 59 101 11 147 -24 23 -29 36 -29 76 0 27 7 62 15 78 17 33 17 33 -6 20z"></path><path id="pKfFynrPP" d="M2255 2127 c3 -12 9 -29 12 -38 3 -12 -9 -27 -41 -48 -34 -24 -46 -38 -46 -57 0 -21 3 -24 23 -19 95 27 128 65 111 133 -7 27 -16 37 -38 43 -26 7 -27 6 -21 -14z"></path><path id="p60BQAcYg" d="M1772 2082 c-16 -5 -15 -27 3 -42 16 -13 51 -6 58 14 5 13 -40 35 -61 28z"></path><path id="p17DGOzSaI" d="M2090 2021 c0 -11 5 -23 10 -26 6 -3 10 3 10 14 0 11 -4 23 -10 26 -5 3 -10 -3 -10 -14z"></path><path id="pMNcOVmrP" d="M2175 1860 c4 -6 -18 -22 -48 -35 -30 -14 -61 -32 -67 -40 -7 -8 -18 -15 -26 -15 -18 0 -23 -11 -29 -61 -4 -27 -15 -54 -30 -69 -14 -15 -25 -34 -25 -44 0 -9 -4 -15 -9 -12 -5 3 -12 -11 -16 -31 -6 -33 -3 -40 21 -62 16 -13 29 -30 30 -38 3 -21 33 -51 58 -59 70 -22 141 -67 248 -156 16 -13 31 -22 35 -22 5 1 24 5 43 9 29 6 33 5 23 -6 -17 -17 -16 -29 2 -29 8 0 15 -5 15 -11 0 -7 7 -8 18 -4 9 4 23 9 30 12 7 3 12 -3 12 -16 0 -22 20 -30 20 -8 0 7 7 4 15 -7 8 -11 15 -15 15 -10 0 6 7 19 16 30 14 18 15 18 8 -6 -4 -14 -9 -30 -11 -37 -3 -7 39 10 94 37 54 27 86 39 71 26 -42 -33 -33 -40 13 -10 l42 26 -24 -38 -24 -39 30 19 29 19 -22 -28 c-28 -36 -28 -42 3 -42 16 0 25 5 25 16 0 9 10 21 23 26 19 9 22 17 21 62 -2 60 -19 83 -61 83 -25 0 -101 -50 -111 -72 -9 -20 -22 -4 -22 26 0 18 -7 39 -16 46 -8 8 -21 28 -29 47 -8 18 -18 33 -23 33 -37 0 -310 238 -313 273 0 7 0 54 1 105 1 60 -2 92 -9 92 -6 0 -11 7 -11 15 0 8 -9 15 -21 15 -11 0 -17 -5 -14 -10z"></path><path id="pZuFFNwYm" d="M3151 1523 c-28 -83 -38 -143 -22 -143 7 0 21 19 31 43 11 23 20 34 20 25 0 -10 4 -18 8 -18 15 0 52 90 52 125 0 33 -2 35 -33 35 -31 0 -33 -3 -56 -67z"></path><path id="pG0Yyh4ML" d="M3221 1450 c-7 -25 -20 -65 -29 -90 -25 -67 -25 -69 2 -20 29 51 33 50 11 -4 -15 -36 -15 -36 10 -36 20 0 25 5 25 25 0 18 5 25 20 25 16 0 19 6 18 35 -1 26 -6 35 -19 35 -13 0 -19 9 -21 38 l-3 37 -14 -45z"></path><path id="pJZTgiJoK" d="M3057 1313 c-9 -21 -19 -48 -22 -59 -3 -12 -14 -24 -25 -27 -11 -3 -29 -21 -40 -41 -19 -31 -25 -34 -50 -29 -16 3 -41 2 -55 -1 -20 -5 -25 -12 -25 -40 0 -22 5 -33 15 -33 8 0 15 6 15 13 0 7 3 15 8 17 4 3 6 -18 5 -46 -2 -29 0 -46 3 -38 5 11 8 11 15 0 6 -10 10 -9 15 6 4 11 17 32 28 46 12 15 26 35 33 45 10 16 12 16 7 2 -10 -29 13 -21 36 13 12 16 24 28 27 25 3 -2 -2 -15 -11 -28 -20 -28 -20 -38 -1 -38 8 0 15 9 15 20 0 13 7 20 19 20 10 0 21 9 24 20 3 12 14 20 26 20 16 0 21 6 21 26 0 22 -3 24 -14 15 -17 -14 -31 2 -22 24 3 8 1 15 -3 15 -5 0 -12 -6 -14 -12 -4 -10 -6 -10 -6 0 -1 7 8 30 19 52 25 49 25 50 -3 50 -18 0 -28 -9 -40 -37z"></path><path id="p183qPIeAk" d="M2670 1145 c-10 -12 -10 -15 4 -15 9 0 16 7 16 15 0 8 -2 15 -4 15 -2 0 -9 -7 -16 -15z"></path></g></g><g id="l3Hh0852RSYWiqDWNaFrhLQ" fill="rgb(41,62,70)" style="transform: none;"><g style="transform: none;"><path id="pBn31QkWL" d="M4 4986 c-3 -8 -4 -25 -2 -38 l3 -23 28 27 c15 15 27 32 27 38 0 15 -50 12 -56 -4z"></path><path id="pRhEW0vvV" d="M119 4961 c-19 -21 -54 -46 -77 -57 -30 -14 -42 -25 -42 -41 0 -31 28 -30 88 2 60 32 64 20 18 -68 l-35 -67 6 51 6 50 -39 -3 -39 -3 -3 -302 c-1 -199 1 -303 8 -303 9 0 22 17 93 121 16 22 30 39 32 37 2 -2 -8 -42 -22 -88 -34 -114 -38 -137 -23 -155 18 -22 27 -18 33 13 4 24 26 93 58 187 25 71 59 216 69 290 17 129 42 238 51 223 12 -17 10 -171 -2 -233 -5 -27 -13 -104 -18 -170 -7 -110 -22 -166 -58 -227 -2 -5 0 -8 5 -8 6 0 24 22 41 48 17 27 42 59 56 72 l25 23 0 -31 c0 -17 -5 -43 -10 -58 -6 -15 -8 -36 -4 -48 5 -16 13 -1 31 59 31 106 50 267 36 320 l-10 40 -12 -28 c-6 -16 -11 -46 -11 -68 0 -44 -27 -104 -60 -134 l-22 -20 6 35 c33 205 38 263 33 401 -6 191 -14 205 -56 100 -18 -44 -39 -85 -46 -91 -7 -6 -23 -36 -36 -68 -24 -59 -86 -162 -99 -162 -4 0 10 35 31 78 54 110 79 176 89 235 5 29 11 60 15 70 6 14 1 17 -31 17 -32 -1 -46 -8 -75 -39z"></path><path id="p1Da7vwpAD" d="M654 4983 c5 -18 11 -94 21 -247 3 -43 7 -81 9 -85 8 -13 28 -352 22 -376 -4 -14 -11 -23 -17 -19 -6 3 -16 -2 -24 -12 -12 -18 -14 -17 -19 11 -4 17 -11 50 -18 75 -6 25 -14 68 -18 95 -19 122 -120 400 -144 392 -21 -7 -17 -89 9 -216 14 -69 32 -146 40 -171 7 -25 21 -81 30 -125 17 -81 58 -184 79 -197 25 -17 45 -7 62 32 16 36 20 39 38 27 36 -21 84 -10 101 23 8 16 27 46 40 66 14 21 37 76 52 122 25 81 26 89 14 159 -7 41 -21 100 -32 131 -11 31 -28 91 -39 132 -10 41 -26 103 -36 138 l-16 62 -80 0 c-71 0 -79 -2 -74 -17z m125 -180 c1 -17 6 -44 12 -60 17 -43 38 -135 39 -167 0 -59 -19 -10 -44 114 -15 69 -31 143 -36 165 -14 59 -11 65 10 20 10 -22 19 -54 19 -72z"></path><path id="plR95VWVv" d="M956 4968 c4 -18 28 -105 54 -193 59 -196 77 -266 96 -373 29 -164 69 -282 97 -282 11 0 1 412 -17 720 -3 41 -5 94 -5 118 -1 41 -1 42 -37 42 l-35 0 6 -57 c3 -32 10 -87 15 -123 5 -36 12 -123 15 -195 3 -71 9 -146 12 -165 13 -77 -7 -18 -27 80 -11 58 -32 139 -45 180 -27 85 -55 211 -55 253 0 25 -3 27 -40 27 -39 0 -39 0 -34 -32z"></path><path id="p15pWdvA1j" d="M1431 4953 c-32 -133 -101 -673 -101 -783 0 -130 19 -130 97 2 26 44 53 82 60 85 7 3 23 28 36 56 21 46 31 80 68 232 10 37 52 117 124 232 17 26 65 83 108 126 42 44 77 83 77 88 0 5 -54 9 -120 9 -100 0 -120 -2 -120 -15 0 -8 -4 -15 -10 -15 -5 0 -10 -15 -10 -32 0 -18 -12 -55 -25 -83 -14 -27 -25 -55 -25 -61 0 -6 -9 -31 -20 -56 -10 -24 -29 -84 -40 -133 -11 -49 -30 -103 -40 -121 -11 -17 -20 -36 -20 -42 0 -5 -20 -43 -45 -83 l-45 -73 6 49 c3 28 12 93 20 145 8 52 19 127 24 165 25 180 32 223 46 269 20 71 18 86 -10 86 -20 0 -26 -7 -35 -47z"></path><path id="p5zrKA6D8" d="M2170 4976 c0 -13 -7 -30 -17 -37 -21 -18 -144 -165 -167 -201 -14 -22 -90 -68 -112 -68 -3 0 -3 17 0 38 l6 37 -21 -25 c-39 -47 -145 -216 -163 -261 -10 -24 -31 -68 -48 -98 l-31 -54 33 19 c19 10 64 47 101 82 36 34 73 62 80 62 8 0 37 16 64 36 28 20 68 45 89 56 39 20 42 20 93 4 29 -9 53 -19 53 -21 0 -2 -28 -3 -62 -2 -55 2 -69 -2 -110 -29 -45 -28 -97 -88 -111 -126 -5 -14 -1 -18 17 -18 25 0 46 34 46 74 0 14 10 30 25 40 14 9 25 12 25 6 0 -6 8 -6 23 -1 12 5 46 6 75 3 33 -3 62 0 76 8 19 9 28 9 47 0 53 -27 136 -99 194 -167 70 -82 139 -201 111 -190 -10 4 -20 7 -22 7 -2 0 -4 5 -4 11 0 51 -122 205 -182 230 -35 14 -47 5 -25 -19 14 -15 15 -23 5 -50 -8 -21 -19 -32 -33 -32 -35 0 -65 -12 -65 -25 0 -15 123 -29 174 -20 34 7 35 6 63 -54 26 -56 31 -61 61 -61 29 0 32 -3 32 -30 0 -24 6 -33 26 -40 26 -10 88 -70 98 -95 3 -8 10 -15 16 -15 5 0 10 -6 10 -14 0 -7 6 -19 14 -25 33 -27 -18 79 -62 129 -26 30 -39 49 -30 44 19 -10 168 -194 168 -206 0 -5 5 -8 10 -8 6 0 10 16 10 35 0 19 -4 35 -10 35 -5 0 -10 7 -10 15 0 8 -9 20 -20 27 -11 7 -20 19 -20 26 0 7 -7 15 -15 18 -8 4 -15 10 -15 15 0 5 -16 29 -35 55 -36 46 -48 104 -22 104 7 0 28 -16 47 -35 19 -19 40 -35 47 -35 7 0 13 -11 13 -25 0 -14 7 -28 15 -31 8 -4 15 -12 15 -20 0 -8 5 -14 10 -14 6 0 10 -6 10 -14 0 -7 11 -25 25 -40 14 -15 25 -31 25 -37 0 -5 5 -9 10 -9 6 0 10 -6 10 -14 0 -8 6 -21 13 -28 39 -41 115 -249 148 -407 24 -116 24 -121 -1 -121 -18 0 -20 -7 -20 -57 0 -32 4 -64 8 -71 10 -16 42 -5 42 14 0 8 5 14 11 14 5 0 7 -5 4 -11 -4 -6 3 -5 14 3 26 16 33 40 29 99 -3 38 0 46 21 57 30 16 40 8 12 -10 -12 -7 -21 -16 -21 -20 0 -9 52 -11 74 -2 20 8 21 57 3 73 -10 8 -16 53 -20 153 -4 79 -9 168 -12 198 -3 30 -3 49 1 43 3 -7 21 -13 40 -13 29 0 36 5 49 36 8 20 16 55 16 78 1 26 3 32 6 16 9 -53 27 -96 57 -133 28 -36 31 -45 34 -138 4 -86 2 -99 -12 -99 -9 0 -16 -4 -16 -10 0 -5 -9 -10 -20 -10 -10 0 -35 -8 -55 -17 -31 -15 -36 -21 -33 -48 2 -24 8 -31 30 -33 14 -2 45 6 67 17 22 12 52 21 66 21 14 0 25 5 25 10 0 14 32 12 73 -5 44 -18 83 -19 101 -3 11 10 6 15 -28 24 -22 7 -55 18 -73 25 -28 11 -39 11 -85 -5 -29 -11 -79 -32 -110 -48 -32 -15 -58 -26 -58 -23 0 7 99 58 140 71 87 29 91 31 78 58 -6 14 -15 23 -21 19 -5 -3 -6 4 -2 18 4 13 7 41 6 64 -4 78 -4 96 3 103 12 12 44 -39 72 -116 23 -62 25 -77 15 -99 -13 -29 -8 -37 28 -48 l24 -7 -7 108 c-11 176 -49 321 -127 490 -23 50 -25 128 -4 209 23 92 44 131 90 169 31 26 51 57 80 123 44 99 113 196 154 218 15 7 33 21 40 29 8 9 18 16 24 16 17 0 1 -252 -27 -415 -44 -262 -57 -366 -62 -515 -6 -155 -22 -253 -60 -364 -13 -38 -21 -73 -18 -78 3 -4 -4 -8 -16 -8 -37 0 -16 -25 23 -28 34 -3 37 -1 37 22 0 20 -4 24 -17 19 -22 -8 -17 -2 22 22 25 15 28 16 16 2 -12 -15 -10 -17 18 -17 19 0 31 5 31 13 0 20 99 41 146 32 l39 -8 -47 -8 c-59 -9 -68 -15 -68 -43 0 -22 2 -22 53 -15 65 9 107 25 130 50 10 10 31 19 47 19 20 0 30 5 30 15 0 8 7 15 15 15 19 0 35 40 35 86 0 40 12 47 133 72 61 13 77 20 77 34 0 21 -5 21 -90 3 -36 -7 -67 -12 -69 -10 -2 2 10 7 25 10 16 4 40 11 54 17 14 6 38 10 54 9 23 -2 28 0 22 14 -3 9 -6 19 -6 21 0 2 -11 4 -24 4 -28 0 -37 36 -30 126 5 51 1 67 -24 115 -25 50 -28 64 -22 113 3 30 9 58 12 62 15 14 28 -10 28 -49 0 -27 10 -58 26 -87 14 -25 32 -78 40 -118 8 -40 18 -82 24 -92 5 -10 10 -35 10 -54 0 -39 5 -43 29 -23 17 14 71 39 71 33 0 -2 -20 -17 -45 -33 -25 -15 -45 -31 -45 -35 0 -5 16 -8 35 -8 19 0 35 5 35 10 0 6 6 10 13 10 6 1 21 13 32 27 11 14 28 34 38 44 9 11 17 30 17 44 0 21 5 25 30 25 20 0 30 5 30 15 0 8 9 15 20 15 11 0 20 7 20 15 0 10 10 15 30 15 20 0 30 5 30 15 0 8 6 15 13 15 22 0 64 53 71 89 l6 34 -29 -39 c-19 -27 -53 -53 -102 -79 -41 -21 -98 -63 -127 -92 -41 -41 -49 -46 -35 -22 10 17 32 42 50 56 18 14 35 32 38 42 3 9 14 17 24 18 35 3 122 45 132 65 6 10 13 51 16 89 3 39 9 66 12 62 5 -8 14 -9 39 -4 4 1 0 6 -8 11 -11 7 -5 10 23 10 30 0 37 4 37 19 0 17 -10 21 -70 27 l-70 7 0 32 c0 36 -6 35 105 14 l50 -9 -4 -43 c-3 -38 -2 -40 13 -28 33 27 48 73 52 159 4 67 10 95 29 130 40 71 31 95 -17 45 -51 -56 -61 -80 -55 -136 4 -29 9 -62 13 -73 l6 -22 -87 18 c-48 10 -91 22 -96 27 -5 5 19 4 53 -3 106 -23 104 -24 100 50 -3 54 0 70 21 103 14 22 39 51 56 66 41 34 40 51 -1 42 -43 -9 -68 -32 -68 -62 0 -14 -6 -23 -15 -23 -8 0 -15 -9 -15 -20 0 -11 -4 -20 -10 -20 -5 0 -10 -20 -10 -45 0 -29 -5 -48 -14 -51 -7 -3 -41 4 -74 15 -88 30 -110 28 -114 -9 l-3 -29 -58 50 c-31 28 -62 59 -67 68 -8 17 -3 18 65 13 l75 -5 0 40 c0 27 -6 46 -20 58 -24 21 -26 45 -5 45 8 0 15 5 15 10 0 6 18 10 40 10 39 0 40 1 40 36 0 19 -14 64 -31 100 l-31 64 -44 0 c-24 0 -44 -2 -44 -4 0 -2 9 -24 19 -49 l19 -44 -46 -6 c-60 -8 -90 -14 -102 -22 -6 -4 -50 -1 -98 5 -59 8 -95 8 -112 2 -18 -7 -21 -11 -10 -15 8 -2 29 -8 45 -13 29 -9 30 -12 27 -61 -4 -48 -1 -54 37 -96 23 -24 41 -47 41 -51 0 -4 14 -28 31 -54 l32 -47 -44 41 c-47 44 -89 71 -89 56 0 -9 25 -82 60 -172 20 -54 49 -251 50 -340 0 -43 -21 -90 -39 -90 -5 0 -11 39 -15 86 -9 108 -35 176 -90 234 -23 25 -62 72 -87 104 -39 53 -44 57 -47 36 -2 -13 4 -49 13 -80 19 -63 18 -191 -2 -197 -7 -3 -21 14 -32 36 -12 22 -25 42 -30 45 -12 8 34 -115 58 -155 21 -33 28 -79 14 -79 -5 0 -28 28 -53 61 -54 73 -90 105 -101 88 -12 -20 -21 130 -15 255 3 66 2 146 -2 176 l-8 55 -7 -45 c-4 -25 -11 -107 -17 -183 l-9 -137 -51 -103 c-52 -103 -74 -136 -86 -124 -4 3 -8 46 -9 94 -1 48 -9 119 -16 156 -12 60 -11 82 5 190 37 241 45 313 46 380 l0 67 -81 0 c-107 0 -137 -21 -192 -140 -24 -51 -61 -108 -92 -142 -28 -32 -64 -81 -80 -110 -15 -29 -42 -71 -60 -93 -51 -65 -73 -107 -83 -160 -13 -68 -40 -179 -58 -241 -7 -28 -14 -68 -15 -90 -1 -21 -4 -50 -9 -64 l-7 -25 -11 26 c-38 95 -57 273 -57 549 l0 225 33 57 c38 65 47 73 80 73 19 0 27 9 39 43 8 24 13 53 11 65 -3 20 -9 22 -76 22 l-74 0 -33 -85 c-38 -99 -62 -285 -51 -404 4 -39 9 -93 12 -121 l4 -50 -15 48 c-15 44 -18 47 -49 47 -30 0 -36 -4 -50 -40 -9 -22 -16 -66 -16 -97 0 -31 -2 -54 -5 -52 -12 13 -27 171 -30 324 -3 152 -7 183 -37 302 l-33 133 -41 0 -42 0 5 -47 c2 -27 11 -70 18 -98 8 -27 16 -71 19 -96 2 -25 10 -59 18 -75 9 -16 18 -60 21 -99 7 -78 36 -237 73 -398 22 -100 24 -157 4 -157 -5 0 -14 17 -20 38 -7 20 -36 87 -65 147 -28 61 -58 137 -65 170 -7 33 -29 98 -50 145 -21 47 -45 113 -53 145 -8 33 -31 94 -51 135 -20 41 -36 80 -36 87 0 7 -10 33 -22 58 -22 45 -22 45 -75 45 -39 0 -53 -4 -53 -14 0 -35 32 -136 60 -186 27 -51 47 -88 110 -210 13 -25 27 -52 32 -60 4 -8 13 -26 18 -39 6 -13 19 -35 29 -50 10 -14 21 -42 25 -61 l6 -35 -14 37 c-8 21 -28 57 -45 82 -17 24 -41 64 -54 89 -14 25 -46 71 -73 101 -40 47 -53 56 -81 56 -30 0 -33 -3 -33 -30 0 -20 -5 -30 -15 -30 -25 0 -19 -73 8 -107 48 -57 44 -63 -31 -43 -37 9 -77 22 -89 28 -12 7 -31 12 -42 12 -12 0 -21 6 -21 14 0 17 -97 56 -143 57 -20 0 -26 3 -17 7 37 18 90 55 90 63 0 15 65 39 104 39 26 0 39 6 48 23 23 40 37 111 38 185 l0 72 -75 0 c-72 0 -75 -1 -75 -24z m2293 -166 c17 -28 17 -31 1 -37 -19 -7 -69 42 -59 58 12 19 41 8 58 -21z m-2159 -344 c35 -12 36 -14 13 -18 -15 -3 -34 2 -48 13 -29 22 -18 24 35 5z m2206 -48 c0 -4 -9 -8 -20 -8 -17 0 -20 -7 -20 -40 0 -39 18 -80 75 -175 30 -49 31 -65 5 -98 -11 -14 -20 -35 -20 -46 0 -16 -6 -21 -24 -21 -15 0 -26 -7 -28 -17 -2 -10 -2 27 0 81 3 55 0 129 -6 165 -6 36 -14 102 -17 146 l-7 80 31 -29 c17 -17 31 -33 31 -38z m165 11 c13 -20 -23 -8 -45 16 l-24 25 32 -15 c17 -9 34 -20 37 -26z m-2179 -144 c10 -8 14 -15 7 -15 -19 0 -43 11 -43 21 0 13 14 11 36 -6z m298 -220 c49 -68 85 -125 70 -110 -6 6 -32 42 -59 80 -26 39 -87 110 -134 160 l-86 90 83 -80 c46 -44 103 -107 126 -140z m225 187 c20 -38 91 -560 91 -670 0 -67 -3 -80 -15 -76 -11 5 -13 -1 -8 -30 4 -24 2 -36 -6 -36 -6 0 -11 17 -11 43 0 23 -9 87 -19 142 -11 55 -24 134 -30 175 -5 41 -17 116 -26 165 -34 182 -18 366 24 287z m1711 -16 c0 -26 -34 -75 -45 -64 -4 3 -9 25 -12 47 -6 40 -5 41 26 41 26 0 31 -4 31 -24z m-1454 -127 c-24 -104 -35 -117 -15 -17 16 81 30 130 35 126 2 -3 -7 -52 -20 -109z m1353 44 c1 -12 -3 -25 -9 -28 -6 -4 -10 12 -9 42 0 36 3 43 9 28 5 -11 9 -30 9 -42z m-2107 30 c8 -10 18 -28 21 -41 5 -20 3 -21 -9 -11 -20 16 -47 69 -36 69 5 0 16 -8 24 -17z m1505 -85 c-2 -18 -4 -6 -4 27 0 33 2 48 4 33 2 -15 2 -42 0 -60z m-27 25 l0 -23 -21 21 c-16 16 -18 23 -8 35 15 18 29 2 29 -33z m-665 -50 c-10 -88 -16 -113 -27 -113 -7 0 -8 16 -4 46 6 50 27 124 33 124 3 0 2 -26 -2 -57z m440 -63 c10 -20 15 -59 15 -122 0 -51 4 -110 9 -131 8 -32 6 -42 -9 -55 -36 -33 -49 -42 -60 -42 -5 0 -10 -7 -10 -15 0 -8 -4 -15 -8 -15 -5 0 0 26 11 58 15 43 21 94 25 205 2 81 6 147 8 147 2 0 10 -13 19 -30z m187 -51 c11 -40 24 -108 29 -149 5 -41 12 -81 14 -89 3 -8 -6 -25 -22 -38 -24 -19 -26 -24 -13 -33 8 -5 28 -10 45 -10 20 0 26 -3 18 -11 -7 -7 -36 -5 -97 6 -48 9 -101 14 -119 10 -24 -5 -28 -4 -17 4 8 6 25 11 38 11 12 0 31 9 41 19 22 22 20 72 -5 150 -17 54 -18 124 -3 154 15 26 51 57 63 54 5 -2 18 -37 28 -78z m154 22 c3 -16 26 -48 50 -72 24 -24 44 -47 44 -51 0 -4 -15 -8 -34 -8 -19 0 -38 -4 -41 -10 -12 -19 -35 -10 -35 14 0 13 -6 27 -12 30 -10 5 -10 7 0 12 14 7 16 53 2 88 -8 21 -6 26 5 26 9 0 18 -12 21 -29z m-988 -91 c0 -22 -1 -22 -8 5 -4 17 -8 41 -8 55 0 22 1 22 8 -5 4 -16 8 -41 8 -55z m934 -131 c-5 -46 -10 -45 -22 5 -7 30 -5 36 9 36 13 0 16 -8 13 -41z m50 -9 c-9 -22 -18 -34 -20 -26 -4 18 16 66 27 66 5 0 2 -18 -7 -40z m-1060 -375 c-2 -14 -6 -25 -8 -25 -2 0 -4 11 -4 25 0 14 4 25 9 25 4 0 6 -11 3 -25z"></path><path id="p14YjlEmMo" d="M4940 4805 c0 -32 2 -35 30 -35 28 0 30 3 30 35 0 32 -2 35 -30 35 -28 0 -30 -3 -30 -35z"></path><path id="pj09NBjP6" d="M2090 4454 c0 -11 17 -14 68 -13 73 0 62 12 -20 21 -37 4 -48 2 -48 -8z"></path><path id="pQLNW9NEI" d="M4980 4446 c-5 -13 -13 -27 -19 -31 -6 -3 -25 -26 -41 -51 l-31 -44 25 0 c20 0 29 8 40 35 8 19 22 35 30 35 12 0 16 11 16 40 0 46 -6 51 -20 16z"></path><path id="p1Cx8eUfK" d="M1715 4328 c-58 -46 -165 -151 -165 -162 0 -5 31 20 68 55 37 35 88 81 112 101 55 45 41 51 -15 6z"></path><path id="pYzL4NxeF" d="M2013 4323 c-7 -2 -13 -17 -13 -32 0 -20 -7 -29 -30 -38 -51 -19 -38 -37 23 -29 28 3 64 6 80 6 20 0 27 5 27 20 0 15 -7 20 -28 20 -26 0 -28 3 -24 30 4 30 -5 36 -35 23z"></path><path id="pH7SvWqae" d="M1722 4285 c-11 -14 -24 -40 -27 -57 -4 -17 -20 -52 -35 -77 -30 -49 -57 -127 -47 -137 16 -16 72 47 108 122 57 116 57 221 1 149z"></path><path id="p13zIsjLbV" d="M1762 4187 c-66 -162 -72 -178 -63 -173 13 8 70 121 86 171 12 35 14 37 14 13 1 -24 5 -28 29 -28 48 0 72 11 72 32 0 17 -5 20 -29 15 -20 -4 -31 -2 -35 8 -3 8 -12 15 -20 15 -8 0 -16 7 -18 15 -2 8 -18 -22 -36 -68z"></path><path id="pKAFBY45O" d="M50 3726 c0 -3 15 -15 33 -27 23 -17 28 -18 18 -6 -14 18 -51 42 -51 33z"></path><path id="p7dlZjryy" d="M3490 3491 c0 -6 -7 -11 -15 -11 -8 0 -15 -9 -15 -20 0 -13 7 -20 20 -20 13 0 18 5 14 15 -7 17 21 21 31 5 3 -5 15 -10 26 -10 15 0 20 6 17 23 -2 18 -10 23 -40 25 -22 2 -38 -1 -38 -7z"></path><path id="p1BDNLI8T0" d="M2710 3391 c0 -5 7 -12 16 -15 22 -9 24 -8 24 9 0 8 -9 15 -20 15 -11 0 -20 -4 -20 -9z"></path><path id="p1HrN8cdNg" d="M2618 3354 c-5 -4 -8 -21 -8 -37 0 -25 -2 -28 -15 -17 -12 10 -15 9 -15 -5 0 -15 7 -16 49 -11 60 7 111 -9 111 -35 0 -15 7 -19 35 -19 29 0 35 4 35 21 0 11 5 17 10 14 11 -7 13 37 4 73 -5 17 -13 22 -38 21 -30 0 -30 -1 -7 -10 19 -8 22 -14 17 -37 -4 -15 -7 -33 -8 -40 -1 -9 -4 -10 -12 -2 -7 7 -7 17 2 31 19 30 4 39 -18 11 l-18 -22 -22 35 c-24 39 -35 42 -67 20 -19 -14 -22 -13 -25 1 -2 9 -6 12 -10 8z"></path><path id="pZddjLTWQ" d="M2089 2135 c17 -37 32 -43 51 -20 10 12 6 18 -22 35 -45 27 -48 26 -29 -15z"></path><path id="pUdxgYseM" d="M2062 2099 c2 -6 8 -10 13 -10 5 0 11 4 13 10 2 6 -4 11 -13 11 -9 0 -15 -5 -13 -11z"></path><path id="poyZiZCeU" d="M1830 1932 c0 -13 36 -22 90 -21 35 0 40 2 24 9 -37 15 -114 23 -114 12z"></path><path id="pqW9bRy03" d="M2055 1920 l-50 -7 50 0 c28 -1 61 3 75 7 l25 8 -25 -1 c-14 0 -47 -3 -75 -7z"></path><path id="p14Bz9HV6n" d="M2174 1858 c2 -15 10 -23 22 -23 12 0 20 8 22 23 3 18 -1 22 -22 22 -21 0 -25 -4 -22 -22z"></path><path id="p2kI0rmX5" d="M3113 1200 c-3 -11 -12 -20 -19 -20 -9 0 -14 -11 -14 -30 0 -23 -5 -31 -25 -36 -13 -3 -44 -30 -69 -59 -44 -50 -44 -52 -18 -47 15 3 30 10 34 16 5 6 8 2 8 -10 0 -12 -10 -36 -23 -55 -39 -58 -41 -65 -13 -39 15 14 35 38 43 53 11 22 17 26 28 17 15 -13 28 1 20 22 -3 7 4 27 16 43 12 18 18 22 14 10 -10 -31 -16 -85 -8 -85 3 0 16 8 27 17 12 10 6 2 -11 -18 -18 -19 -33 -40 -33 -47 0 -7 -9 -12 -19 -12 -11 0 -23 -5 -26 -10 -9 -15 48 0 57 14 5 6 8 1 8 -11 0 -13 5 -23 11 -23 26 0 -5 -18 -40 -24 -22 -3 -43 -11 -47 -17 -4 -8 3 -9 22 -5 88 17 107 19 100 7 -14 -22 5 -31 32 -14 80 48 103 67 97 80 -3 11 1 13 16 8 23 -8 69 28 69 53 0 12 -4 12 -20 -3 -21 -19 -23 -16 -20 29 2 36 -12 28 -41 -24 -12 -22 -41 -52 -63 -66 -29 -19 -36 -21 -25 -8 16 18 59 98 59 109 0 11 -50 4 -51 -7 -1 -7 -5 7 -10 32 -6 25 -7 75 -3 113 l6 67 -32 0 c-23 0 -33 -5 -37 -20z m37 -25 c0 -2 -9 -19 -20 -37 -23 -37 -25 -35 -9 11 6 17 15 31 20 31 5 0 9 -2 9 -5z"></path><path id="pCWTlW3el" d="M2667 1140 c-21 -30 -22 -73 -2 -90 11 -9 15 -26 13 -53 -2 -30 1 -40 13 -42 14 -2 15 4 7 43 -4 25 -13 51 -18 56 -14 14 -13 73 2 78 6 2 9 10 6 18 -3 10 -9 7 -21 -10z"></path><path id="pPgjurVy5" d="M2716 1118 c-18 -26 -13 -36 9 -18 20 16 19 3 -1 -17 -18 -18 -15 -54 5 -61 10 -3 12 1 8 17 -8 32 2 25 18 -11 8 -19 14 -26 15 -15 0 10 8 17 19 17 10 0 21 7 25 15 3 8 10 15 16 15 6 0 4 -13 -6 -31 -15 -30 -15 -33 6 -53 11 -11 28 -30 36 -41 15 -19 15 -19 10 5 -4 17 0 30 13 40 21 17 37 70 21 70 -5 0 -10 5 -10 11 0 5 5 7 10 4 13 -8 43 22 35 35 -3 5 -15 10 -25 10 -10 0 -22 5 -25 10 -3 6 -19 10 -36 10 -16 0 -29 -4 -29 -10 0 -5 -11 -10 -25 -10 -16 0 -25 6 -25 15 0 23 -47 18 -64 -7z m163 -40 c-12 -65 -11 -77 6 -54 10 13 15 15 15 6 0 -20 -31 -50 -52 -50 -22 0 -23 21 -3 60 10 19 11 30 5 30 -6 0 -8 5 -5 10 4 6 11 8 16 5 5 -4 9 3 9 14 0 12 4 21 9 21 4 0 5 -19 0 -42z"></path><path id="p1FUelkPU2" d="M2520 967 c0 -9 13 -30 29 -47 16 -18 32 -45 35 -62 6 -33 56 -122 63 -114 3 3 -9 30 -26 60 -17 31 -31 64 -31 73 0 10 -16 38 -35 62 -20 25 -35 37 -35 28z"></path><path id="p17bl4rMF8" d="M2210 963 c0 -7 3 -13 8 -13 4 0 15 -12 24 -27 10 -16 18 -23 18 -16 0 7 -11 25 -25 40 -13 15 -25 22 -25 16z"></path><path id="p13lBi0hdh" d="M2350 947 c0 -17 39 -83 61 -102 l23 -20 -18 30 c-38 60 -66 99 -66 92z"></path><path id="p1AdfIiSxQ" d="M2796 915 c9 -14 19 -24 21 -21 7 7 -16 46 -28 46 -5 0 -2 -11 7 -25z"></path><path id="p104E2vrn0" d="M2686 880 c6 -6 26 -19 45 -29 20 -11 33 -26 33 -36 -1 -9 0 -14 4 -11 3 3 11 -2 18 -12 12 -15 12 -12 3 15 -6 17 -16 36 -22 41 -18 15 -94 45 -81 32z"></path><path id="pxRLB3FOu" d="M2936 882 c-2 -4 -38 -7 -79 -7 -58 0 -71 -2 -56 -10 11 -6 45 -8 82 -4 34 3 70 2 80 -3 9 -5 17 -5 17 -1 0 12 -38 34 -44 25z"></path><path id="p17WwzlC5D" d="M2320 852 c35 -69 129 -140 171 -129 13 4 29 -7 54 -36 19 -23 35 -37 35 -31 0 20 -70 93 -85 88 -8 -3 -29 5 -47 17 -22 15 -28 17 -19 6 7 -10 9 -17 3 -17 -6 0 -36 28 -67 63 -32 34 -52 51 -45 39z"></path><path id="p17xWMF6tH" d="M2230 840 c16 -31 126 -140 142 -140 6 0 -10 18 -35 41 -26 22 -63 59 -83 82 -22 26 -31 32 -24 17z"></path><path id="p1vPcVsJN" d="M2068 824 c6 -11 32 -38 58 -59 34 -28 43 -33 35 -17 -6 12 -15 22 -20 22 -4 0 -25 17 -46 38 -22 21 -33 28 -27 16z"></path><path id="pcTFam1oL" d="M2370 833 c0 -5 9 -18 20 -28 11 -10 20 -14 20 -8 0 5 -9 18 -20 28 -11 10 -20 14 -20 8z"></path><path id="p12Ecev16y" d="M2940 831 l-25 -7 24 -13 c25 -14 86 -7 97 10 4 8 -4 9 -25 4 -20 -4 -31 -3 -31 4 0 12 -4 12 -40 2z"></path><path id="p1GvszE4FY" d="M2463 811 c-1 -11 7 -27 18 -37 23 -21 24 -13 4 26 -18 35 -20 36 -22 11z"></path><path id="pmquovVpH" d="M2859 783 c6 -12 6 -25 -1 -38 -11 -20 -11 -20 10 -1 27 24 27 28 1 44 -18 12 -19 11 -10 -5z"></path><path id="pwU3RZDaP" d="M2734 765 c20 -14 42 -25 49 -25 13 1 -63 50 -77 50 -5 0 8 -11 28 -25z"></path><path id="pLeRk05Jh" d="M2374 732 c17 -18 34 -32 38 -32 15 0 0 18 -35 41 l-32 22 29 -31z"></path><path id="p3j1KptKK" d="M2705 750 c28 -12 37 -12 30 0 -3 6 -16 10 -28 9 -21 0 -21 -1 -2 -9z"></path><path id="pTrEDACOY" d="M2792 710 c-12 -12 -22 -24 -22 -27 0 -4 11 4 25 17 23 22 29 30 22 30 -2 0 -13 -9 -25 -20z"></path><path id="p4A53H7vP" d="M2435 710 c3 -5 16 -10 28 -9 21 0 21 1 2 9 -28 12 -37 12 -30 0z"></path><path id="p19fsmdVVS" d="M2168 695 c12 -23 50 -60 56 -54 2 2 -12 20 -31 39 -20 20 -31 26 -25 15z"></path><path id="p6KH21Y3s" d="M2474 685 c-19 -14 -19 -14 3 -15 28 0 53 10 53 21 0 14 -34 11 -56 -6z"></path><path id="pZA7Pj2qf" d="M2600 670 c19 -17 44 -35 55 -41 11 -5 0 8 -25 30 -25 23 -49 41 -55 41 -5 0 6 -14 25 -30z"></path><path id="pGp4AR6vy" d="M2300 681 c0 -5 7 -14 15 -21 16 -14 18 -10 9 14 -6 17 -24 22 -24 7z"></path><path id="pQhrQjFEX" d="M2363 674 c16 -9 32 -13 35 -9 9 9 -19 25 -43 24 -16 0 -15 -2 8 -15z"></path><path id="p17v7XKsCL" d="M2634 681 c3 -5 16 -11 28 -14 22 -6 22 -5 4 8 -22 17 -40 20 -32 6z"></path><path id="pIOzbIlPR" d="M1937 646 c-9 -22 1 -25 90 -32 64 -4 75 -3 58 7 -11 7 -35 16 -55 20 -19 5 -47 11 -61 14 -19 5 -28 2 -32 -9z"></path><path id="p142jHByQT" d="M2135 627 c24 -17 86 -39 93 -33 4 5 -47 28 -89 41 -23 7 -23 6 -4 -8z"></path><path id="pxtqc4uuV" d="M2380 567 c0 -3 10 -22 21 -42 l22 -36 -37 6 c-22 5 -36 3 -36 -3 0 -12 135 -46 149 -37 6 3 11 22 11 41 0 35 0 36 42 33 26 -2 43 1 46 9 2 8 -9 12 -34 12 -21 0 -52 5 -71 12 -42 15 -55 2 -23 -25 20 -16 21 -19 5 -12 -11 4 -31 10 -45 12 -14 3 -31 12 -37 21 -7 9 -13 13 -13 9z"></path><path id="pkMRbcGOh" d="M2095 520 c9 -15 45 -32 45 -22 0 5 -12 14 -26 20 -14 7 -23 8 -19 2z"></path><path id="p4ib6duMm" d="M2155 494 c2 -22 9 -41 19 -46 22 -12 88 -6 93 9 4 12 -57 57 -93 67 -19 6 -21 3 -19 -30z"></path></g></g><g id="l17m0DmLtGKJI4WIb3Xs4YJ" fill="rgb(88,104,114)" style="transform: none;"><g style="transform: none;"><path id="pba05w5ZD" d="M0 4981 c0 -23 23 -34 39 -18 19 19 12 37 -14 37 -18 0 -25 -5 -25 -19z"></path><path id="pwF347A1y" d="M145 4963 c-16 -26 -44 -48 -85 -67 l-60 -29 0 -50 0 -49 24 15 24 16 -9 -37 c-16 -64 -31 -163 -26 -169 12 -11 70 68 111 152 37 74 86 216 86 247 0 5 -9 8 -20 8 -12 0 -30 -15 -45 -37z"></path><path id="pyY9MAouz" d="M980 4991 c0 -6 5 -13 10 -16 6 -3 10 -18 10 -33 0 -41 28 -168 55 -252 13 -41 33 -120 45 -175 25 -122 62 -237 78 -243 9 -3 12 21 12 85 -1 84 -24 442 -36 548 -11 102 -4 95 -94 95 -44 0 -80 -4 -80 -9z"></path><path id="pW9ujtdnc" d="M1447 4948 c-14 -49 -22 -94 -47 -273 -5 -38 -17 -115 -26 -170 -20 -123 -24 -299 -7 -316 9 -9 17 0 36 43 14 31 41 81 61 112 20 31 36 61 36 68 0 6 9 25 20 42 10 18 29 72 40 121 11 49 30 109 40 133 11 25 20 50 20 56 0 6 11 34 25 61 13 28 25 59 25 70 1 11 4 14 7 7 9 -23 23 -1 23 37 0 49 -14 61 -71 61 l-47 0 -30 -72 c-16 -40 -37 -98 -46 -128 -9 -30 -23 -66 -32 -80 -15 -24 -15 -24 -10 20 3 25 16 86 30 135 33 118 33 125 -3 125 -27 0 -31 -5 -44 -52z"></path><path id="p14d8Bw7uh" d="M2290 4943 c-1 -61 -17 -132 -38 -171 -11 -18 -19 -22 -40 -17 -28 6 -112 -27 -112 -44 0 -9 -57 -47 -101 -67 -29 -13 -120 -114 -113 -125 3 -5 30 8 61 28 47 30 62 35 97 30 22 -2 57 -12 76 -21 l35 -16 -65 5 c-72 5 -130 -17 -180 -67 -29 -29 -82 -131 -143 -278 -68 -164 -77 -190 -67 -190 6 0 10 5 10 11 0 5 14 15 31 21 22 8 27 13 18 19 -8 5 -17 3 -21 -4 -6 -9 -8 -9 -8 0 0 7 8 17 18 22 14 8 27 4 55 -14 25 -17 49 -25 79 -25 59 1 151 33 164 59 11 21 11 21 29 1 10 -11 27 -22 38 -26 12 -4 27 -13 35 -21 13 -12 12 -16 -4 -28 -18 -13 -16 -14 17 -15 41 0 49 13 49 85 0 68 12 145 22 145 9 0 50 -29 90 -64 10 -9 39 -26 65 -40 72 -36 164 -115 198 -169 21 -32 37 -47 52 -47 19 0 21 3 13 30 -11 37 -53 92 -99 131 l-36 30 32 -14 c53 -22 156 -164 240 -332 74 -146 128 -274 120 -281 -2 -3 -14 22 -26 53 -19 50 -157 293 -167 293 -1 0 31 -69 72 -153 41 -84 77 -171 81 -193 3 -21 9 -41 13 -44 4 -3 12 -34 18 -70 l9 -65 3 85 2 85 19 -105 c17 -100 17 -140 0 -140 -15 0 -33 29 -28 43 3 7 -4 19 -14 25 -10 7 -19 21 -19 32 0 11 -7 20 -15 20 -8 0 -15 5 -15 10 0 6 -5 10 -11 10 -6 0 -22 14 -36 30 -13 17 -31 30 -39 30 -8 0 -14 5 -14 10 0 6 -7 10 -15 10 -8 0 -15 6 -15 14 0 17 -22 26 -61 26 -35 0 -38 -15 -6 -31 36 -19 74 -54 70 -65 -2 -6 17 -20 42 -33 34 -17 45 -28 45 -46 0 -13 -5 -27 -10 -30 -6 -4 -8 -11 -5 -16 4 -5 1 -9 -6 -9 -8 0 -9 12 -5 38 7 37 7 37 -11 15 -17 -21 -19 -21 -38 -5 -12 9 -24 25 -28 35 -3 9 -10 17 -14 17 -13 -1 -39 -24 -46 -40 -4 -10 -6 -8 -6 8 -1 12 -6 22 -12 22 -6 0 -9 -7 -5 -15 9 -25 -4 -48 -20 -34 -10 8 -15 5 -20 -16 -4 -16 -12 -24 -20 -21 -14 5 -27 -8 -38 -38 -6 -17 -3 -18 36 -11 69 13 131 7 148 -14 9 -10 37 -21 63 -25 25 -4 49 -11 52 -17 4 -5 15 -9 26 -9 10 0 19 -6 19 -13 0 -8 17 -18 38 -23 30 -7 39 -15 47 -41 5 -18 13 -33 17 -33 4 0 8 -6 8 -14 0 -8 6 -21 14 -29 8 -7 16 -25 18 -38 2 -16 11 -25 26 -27 17 -3 22 -10 22 -31 0 -37 19 -91 40 -116 9 -11 23 -35 30 -52 9 -24 19 -33 36 -33 l23 0 -19 53 c-28 81 -31 87 -45 87 -7 0 -15 10 -19 23 -3 13 -17 44 -31 68 -56 95 -74 137 -78 174 -5 45 -15 59 -34 44 -12 -11 -13 -8 -7 17 4 16 27 49 52 74 25 25 43 37 39 27 -6 -16 -5 -16 18 -1 16 10 25 26 25 43 0 34 9 47 39 56 13 4 45 27 70 51 25 24 51 44 58 44 7 0 13 7 13 15 0 10 10 15 30 15 17 0 30 5 30 10 0 6 9 10 20 10 11 0 20 5 20 10 0 6 16 10 35 10 28 0 35 -4 35 -19 0 -11 5 -23 10 -26 6 -3 10 -17 10 -30 0 -18 4 -22 20 -18 11 3 20 12 20 19 0 16 36 19 45 4 10 -16 45 -12 52 6 3 9 0 20 -8 25 -10 6 -4 9 19 9 19 0 32 5 32 13 0 9 11 12 36 9 27 -3 39 0 46 12 5 9 15 16 22 16 8 0 16 7 20 15 3 8 12 15 20 15 8 0 16 4 18 10 1 5 25 13 52 16 36 5 47 4 42 -4 -4 -7 -14 -12 -22 -12 -8 0 -14 -4 -14 -10 0 -5 -9 -10 -20 -10 -15 0 -20 -7 -20 -25 0 -28 7 -31 35 -11 11 7 31 16 45 20 l25 7 -25 -15 c-22 -14 -23 -15 -5 -15 23 0 67 17 48 18 -26 2 -12 21 15 21 21 0 24 -2 12 -10 -21 -13 -6 -12 25 2 14 6 25 15 25 20 0 4 14 8 30 8 17 0 30 4 30 9 0 5 9 11 20 14 12 3 20 14 20 26 0 12 4 21 9 21 5 0 12 16 16 36 7 42 36 70 80 80 16 4 38 16 47 27 11 12 18 15 18 7 0 -10 13 -11 50 -7 41 5 57 13 84 42 18 19 38 35 45 35 6 0 11 4 11 9 0 5 12 11 28 13 19 2 28 9 30 26 2 12 10 22 19 22 8 0 17 9 20 20 3 11 12 20 19 20 8 0 14 10 14 25 0 22 4 25 34 25 19 0 41 6 48 13 7 7 21 16 31 20 15 5 26 47 12 47 -25 0 -142 -77 -189 -125 -62 -63 -61 -42 2 27 l37 41 -37 -7 -38 -7 0 43 c0 24 -2 68 -5 98 -3 30 -2 48 1 40 4 -8 22 -32 40 -53 23 -24 34 -47 34 -67 0 -36 16 -39 32 -5 14 31 0 85 -37 139 -34 49 -67 116 -63 125 2 4 17 4 35 -1 61 -16 131 -198 93 -243 -19 -22 -9 -26 34 -13 72 22 132 108 76 108 -16 0 -20 -7 -20 -30 0 -47 -18 -35 -22 15 -3 43 -2 44 27 47 29 3 30 5 30 51 0 26 0 47 1 47 0 0 26 -5 58 -11 66 -12 76 -7 108 54 26 52 22 54 -145 82 -21 3 -52 19 -70 35 l-32 28 59 -19 c32 -11 77 -19 100 -17 l41 3 5 50 c6 58 49 136 91 166 34 24 41 74 12 82 -17 4 -17 5 0 6 9 0 17 8 17 16 0 11 -11 15 -40 15 -46 0 -120 21 -120 33 0 5 -18 7 -41 6 -35 -3 -43 0 -55 21 -19 36 -18 38 24 42 32 3 37 7 40 31 3 27 2 27 -52 27 -34 0 -56 -5 -59 -12 -4 -10 -6 -10 -6 0 -1 12 -61 18 -61 6 0 -3 16 -39 35 -80 19 -40 35 -76 35 -79 0 -9 -69 -5 -75 5 -3 6 -11 10 -17 10 -6 0 -6 -6 2 -15 23 -28 3 -27 -92 3 -51 16 -120 32 -153 34 -66 6 -42 -3 63 -22 34 -6 82 -19 106 -30 38 -16 44 -23 51 -57 3 -21 16 -48 28 -60 27 -30 18 -36 -41 -28 -41 5 -59 16 -116 67 -37 33 -69 58 -71 56 -11 -11 33 -112 65 -149 59 -69 163 -169 205 -198 56 -37 54 -65 -3 -69 -48 -4 -43 -7 -190 152 -40 43 -76 76 -79 72 -4 -3 3 -41 15 -84 19 -68 32 -159 49 -358 3 -33 0 -92 -7 -130 -17 -102 -13 -141 12 -116 18 18 33 15 18 -4 -29 -33 -102 -65 -203 -87 -58 -13 -104 -20 -102 -16 3 4 20 10 38 14 17 4 42 13 54 21 13 8 33 12 47 8 34 -8 94 20 101 49 4 13 -3 50 -14 83 -11 32 -23 79 -26 104 -4 25 -20 72 -37 104 -22 43 -28 67 -24 89 7 34 -17 69 -40 60 -8 -3 -21 2 -28 12 -18 24 -24 11 -37 -72 -15 -100 -14 -106 20 -176 35 -73 36 -76 17 -103 -14 -19 -15 -19 -40 5 -15 15 -31 21 -42 17 -13 -5 -15 -2 -11 16 4 16 -4 39 -25 72 -26 42 -32 47 -40 32 -7 -12 -4 -29 11 -58 21 -43 20 -61 -1 -40 -7 7 -21 12 -31 12 -17 0 -19 -5 -13 -37 3 -21 7 -47 9 -58 1 -11 7 -23 12 -27 6 -4 2 -8 -8 -8 -15 0 -17 -6 -11 -37 4 -21 11 -41 16 -44 5 -3 3 -9 -5 -12 -10 -4 -17 3 -22 20 -8 33 -24 398 -26 588 -1 184 -14 148 -25 -69 -7 -149 -7 -151 -38 -188 -17 -20 -34 -32 -37 -26 -3 5 -16 -5 -27 -24 -12 -18 -27 -41 -34 -51 -11 -15 -9 -21 12 -37 l25 -20 31 37 c31 36 32 36 43 14 7 -12 19 -76 27 -144 8 -67 19 -151 24 -186 8 -59 7 -66 -11 -79 -26 -18 -15 -32 24 -32 27 -1 29 -2 14 -11 -13 -7 -44 -6 -108 5 -104 18 -140 11 -206 -41 -21 -17 -48 -35 -60 -42 -35 -18 -129 -13 -183 10 l-49 21 -62 -21 c-91 -32 -139 -58 -189 -105 l-45 -41 45 48 c45 49 102 83 173 107 31 9 37 15 30 29 -4 9 -8 52 -8 96 -1 97 -9 130 -44 175 -51 65 -53 85 -20 226 16 70 29 135 29 143 0 9 20 68 44 132 42 113 143 289 166 289 6 0 26 35 46 78 24 53 49 90 81 120 49 46 52 59 9 42 -15 -5 -38 -10 -50 -10 -20 0 -28 -12 -56 -85 -20 -53 -40 -91 -54 -101 -58 -37 -224 -308 -251 -408 -7 -28 -18 -64 -23 -81 -13 -42 -31 -138 -39 -215 -6 -64 -29 -137 -39 -127 -24 24 -104 614 -99 725 7 136 19 201 51 284 19 48 34 94 34 103 0 13 -26 15 -180 15 l-180 0 0 -29 c0 -15 14 -80 30 -142 27 -101 31 -130 31 -259 0 -147 17 -301 43 -399 8 -29 16 -88 17 -130 1 -42 6 -87 11 -101 12 -32 7 -26 -42 46 -105 154 -208 272 -228 260 -8 -5 12 -34 62 -91 165 -185 255 -373 309 -643 13 -63 20 -131 18 -155 -4 -36 -6 -30 -12 38 -27 311 -180 627 -401 828 -95 86 -201 151 -235 144 -14 -2 -29 3 -40 16 -10 11 -45 40 -78 65 -78 59 -87 68 -50 50 17 -9 64 -23 105 -33 119 -27 113 -24 106 -55 -4 -23 0 -32 20 -45 29 -18 40 -14 30 11 -3 9 -12 14 -21 10 -10 -3 -15 1 -15 13 0 14 5 18 20 14 28 -7 45 -40 30 -58 -9 -11 -5 -17 18 -29 16 -8 49 -31 73 -52 38 -32 44 -34 48 -18 4 23 -66 84 -88 76 -9 -3 -13 -2 -9 2 12 14 -41 119 -77 155 -19 18 -35 38 -35 43 0 6 -11 23 -25 40 -32 38 -32 53 0 32 34 -22 39 -15 21 37 l-15 44 49 -55 c27 -30 57 -71 67 -90 10 -19 35 -61 56 -93 21 -32 45 -78 54 -103 18 -52 21 -54 52 -43 22 9 23 13 19 73 -4 43 -13 74 -27 94 -11 16 -25 40 -31 53 -5 13 -14 31 -18 39 -5 8 -19 35 -32 60 -35 68 -77 148 -115 220 -19 36 -35 72 -35 81 0 9 -5 30 -11 48 l-11 31 -74 0 -74 0 0 -57z m2492 -220 c2 -19 10 -29 23 -31 47 -7 65 -13 65 -22 0 -6 -9 -10 -20 -10 -13 0 -22 -10 -28 -31 l-8 -32 -48 54 c-26 29 -43 55 -37 57 6 2 11 12 11 23 0 32 38 24 42 -8z m-2567 -240 c73 -47 207 -193 248 -271 21 -39 36 -72 33 -72 -21 0 -41 20 -58 59 -23 53 -64 111 -80 111 -6 0 -17 -8 -24 -17 -10 -14 -25 -17 -68 -16 -47 2 -56 0 -56 -15 -1 -16 -2 -16 -15 1 -12 17 -20 18 -76 9 -34 -5 -69 -7 -78 -5 -9 2 -60 -12 -113 -31 -77 -28 -96 -32 -91 -19 4 10 2 14 -4 10 -5 -3 -3 24 5 63 11 51 20 71 34 76 10 3 18 9 18 14 0 19 84 106 119 123 51 24 151 14 206 -20z m2666 -69 c5 -3 9 -14 9 -25 0 -22 -32 -25 -92 -8 -29 7 -38 15 -38 31 0 19 4 20 56 14 31 -4 61 -9 65 -12z m-1852 -124 c11 -47 30 -164 41 -260 12 -96 25 -202 30 -235 5 -33 12 -120 16 -192 6 -120 5 -133 -9 -133 -10 0 -17 -8 -17 -20 0 -11 -4 -20 -10 -20 -5 0 -10 20 -10 44 0 24 -11 88 -25 142 -14 54 -25 117 -25 139 0 22 -7 70 -15 108 -43 204 -55 429 -27 501 18 47 23 40 51 -74z m1696 15 c0 -17 -41 -17 -55 0 -12 15 -10 16 21 13 19 -2 34 -7 34 -13z m-2180 -82 c5 -10 11 -41 14 -70 7 -50 6 -51 -13 -37 -12 8 -31 33 -43 55 -17 32 -19 44 -10 55 17 19 43 17 52 -3z m1714 -53 c0 -8 -6 -4 -13 10 -8 14 -12 29 -8 34 6 10 20 -20 21 -44z m-2279 -30 c0 -22 -5 -30 -18 -30 -10 0 -27 -7 -38 -15 -27 -20 -61 -18 -86 5 -17 16 -19 22 -8 35 14 17 46 20 55 5 3 -5 22 -10 42 -10 26 0 36 5 40 20 8 29 13 25 13 -10z m681 -45 c-1 -15 -24 -12 -29 3 -3 9 2 13 12 10 10 -1 17 -7 17 -13z m1681 -118 c22 -58 22 -59 3 -73 -10 -8 -22 -14 -26 -14 -7 0 -29 136 -28 178 l0 27 14 -30 c7 -16 24 -56 37 -88z m-150 -7 c17 -13 28 -16 35 -9 7 7 12 -1 15 -25 2 -20 1 -36 -2 -36 -3 0 -26 20 -50 45 -45 46 -43 61 2 25z m-27 -76 c33 -21 31 -31 -6 -39 -37 -8 -43 -3 -35 30 8 30 9 30 41 9z m-1314 -81 c26 -66 55 -116 70 -120 25 -7 64 -153 62 -231 -1 -87 -18 -100 -27 -21 -9 74 -44 174 -103 292 -24 48 -41 92 -38 97 11 18 25 11 36 -17z m376 -67 c6 -10 8 -38 5 -62 -4 -36 -2 -44 12 -44 9 0 20 -10 25 -22 9 -25 3 -58 -10 -58 -5 0 -9 -7 -9 -15 0 -9 -9 -15 -22 -15 -13 0 -33 -3 -45 -6 l-23 -6 0 138 c0 135 1 140 23 149 19 9 23 7 28 -15 3 -14 10 -34 16 -44z m832 17 c-1 -34 -2 -35 -9 -13 -11 36 -11 50 0 50 6 0 10 -17 9 -37z m71 22 c-7 -8 -18 -32 -26 -52 -12 -34 -13 -35 -14 -11 0 40 17 78 36 78 13 0 14 -3 4 -15z m-1011 -376 c-8 -5 -23 -8 -34 -8 -19 0 -19 1 1 9 12 5 25 14 30 21 6 10 9 10 12 0 2 -7 -2 -17 -9 -22z m-112 -116 c-3 -10 -5 -2 -5 17 0 19 2 27 5 18 2 -10 2 -26 0 -35z"></path><path id="p15f9lf7aa" d="M716 4954 c-9 -23 -7 -83 4 -129 5 -22 21 -96 36 -165 17 -85 32 -132 46 -147 11 -12 18 -29 15 -37 -4 -10 1 -20 12 -26 16 -8 19 -6 19 13 0 12 4 50 8 84 7 65 -7 157 -33 220 -7 18 -13 45 -13 61 0 40 -27 103 -53 124 -27 22 -33 22 -41 2z"></path><path id="pUIqFABMq" d="M266 4876 c-7 -30 -78 -175 -116 -241 -45 -77 -36 -78 15 -2 25 37 49 67 54 67 5 0 5 -18 0 -41 -6 -23 -6 -47 -1 -56 12 -21 21 -5 28 54 3 26 14 90 25 140 22 107 22 103 10 103 -5 0 -12 -11 -15 -24z"></path><path id="p1A6adjH7c" d="M3837 4855 c-3 -11 -15 -85 -27 -165 -12 -80 -30 -194 -41 -254 -24 -138 -24 -209 0 -262 31 -68 45 -67 38 2 -18 165 -18 252 -3 349 40 243 55 404 33 330z"></path><path id="p1A6O8D3Wb" d="M4960 4680 c-51 -55 -63 -91 -50 -156 15 -70 24 -69 15 2 -7 59 1 80 52 136 14 14 23 32 21 40 -3 9 -16 2 -38 -22z"></path><path id="p1Hf8Rau0B" d="M2350 4427 c0 -8 7 -17 15 -21 8 -3 15 -2 15 3 0 5 -7 14 -15 21 -12 10 -15 10 -15 -3z"></path><path id="pMdZuYPNX" d="M2396 4405 c-3 -9 0 -15 9 -15 8 0 15 7 15 15 0 8 -4 15 -9 15 -5 0 -11 -7 -15 -15z"></path><path id="p1GrmFmUa7" d="M4949 4403 c-8 -10 -29 -39 -47 -65 -29 -42 -31 -48 -15 -48 24 0 43 19 43 42 0 11 7 18 20 18 16 0 20 7 20 35 0 40 -2 41 -21 18z"></path><path id="pxTktrky9" d="M4834 4258 c-12 -12 -35 -44 -53 -70 -28 -42 -30 -48 -14 -48 29 0 95 85 91 116 l-3 26 -21 -24z"></path><path id="p1GZ3GqkVr" d="M2730 4244 c0 -20 55 -100 73 -107 8 -3 20 -2 27 3 9 6 8 9 -7 14 -11 4 -26 26 -37 56 -13 36 -23 50 -37 50 -11 0 -19 -7 -19 -16z"></path><path id="pqqzHz3b4" d="M1702 4149 c-7 -12 -11 -24 -8 -27 6 -6 35 27 36 41 0 14 -15 7 -28 -14z"></path><path id="pWu0cmugn" d="M3729 4158 c0 -2 -4 -88 -9 -193 -7 -183 -9 -194 -44 -294 -20 -57 -33 -107 -30 -110 6 -6 22 3 118 68 74 51 98 90 76 125 -9 14 -14 59 -15 134 -2 110 -3 115 -41 192 -33 66 -50 91 -55 78z m36 -405 c-4 -45 -11 -83 -17 -83 -6 0 -8 10 -5 23 3 12 9 58 13 102 5 44 10 71 12 61 2 -11 1 -57 -3 -103z"></path><path id="p19zON1R7R" d="M3383 4013 c-15 -25 -17 -113 -3 -113 12 0 22 57 18 101 -3 33 -4 33 -15 12z"></path><path id="pE1lvk63R" d="M3455 3889 c-4 -6 0 -18 9 -27 15 -15 16 -15 16 5 0 25 -15 38 -25 22z"></path><path id="ps2I6CfpE" d="M4278 3783 c-21 -5 -26 -73 -5 -73 23 0 92 46 95 63 3 14 -4 17 -35 16 -21 -1 -46 -3 -55 -6z"></path><path id="pKc9tXiX8" d="M3517 3636 c-4 -10 -5 -21 -2 -24 9 -9 17 6 13 25 -3 17 -4 17 -11 -1z"></path><path id="p8dPRQzfB" d="M2870 2506 c0 -8 8 -17 18 -19 16 -4 16 -5 0 -6 -10 0 -18 -8 -18 -16 0 -11 11 -15 40 -15 39 0 40 1 40 35 0 34 -1 35 -40 35 -28 0 -40 -4 -40 -14z"></path><path id="p13NX2qFG9" d="M2960 2476 c0 -31 3 -35 45 -47 33 -10 47 -20 51 -36 5 -17 13 -23 35 -23 35 0 44 17 35 65 -5 26 -12 35 -26 35 -11 0 -20 6 -20 14 0 16 -30 26 -82 26 -36 0 -38 -1 -38 -34z m159 -90 c-2 -2 -19 14 -38 37 l-34 42 38 -37 c22 -21 37 -39 34 -42z"></path><path id="p1AEhEPE6s" d="M2723 2476 c-42 -16 -53 -26 -53 -43 0 -16 -6 -23 -20 -23 -17 0 -20 -7 -20 -37 1 -37 1 -37 17 -18 13 16 15 17 10 3 -5 -14 -1 -18 18 -18 21 0 25 5 25 30 0 23 4 30 20 30 11 0 20 7 20 15 0 10 10 15 30 15 23 0 30 4 30 20 0 11 -7 20 -15 20 -29 0 -82 -33 -99 -62 -10 -16 -20 -27 -23 -24 -13 12 45 71 91 92 64 29 39 29 -31 0z"></path><path id="p16BwF8YQB" d="M1913 2405 c-67 -15 -103 -30 -103 -45 0 -13 6 -12 70 10 43 15 83 19 184 20 l129 0 34 -36 c62 -66 113 -174 83 -174 -5 0 -10 -4 -10 -8 0 -4 9 -8 20 -8 27 0 25 12 -10 82 -40 80 -86 133 -134 155 -49 22 -170 24 -263 4z"></path><path id="pBEkji1Ta" d="M3110 2325 c0 -24 5 -35 15 -35 10 0 15 -11 15 -35 0 -28 4 -35 20 -35 11 0 20 7 20 15 0 21 -51 125 -61 125 -5 0 -9 -16 -9 -35z"></path><path id="p126x0ABVc" d="M3164 2308 c13 -29 26 -61 30 -71 9 -28 26 -10 26 29 0 27 -4 34 -20 34 -16 0 -20 7 -20 30 0 23 -5 30 -19 30 -19 0 -19 -2 3 -52z"></path><path id="pmj1SGJFA" d="M1754 2273 c-19 -43 -44 -156 -44 -195 0 -18 -5 -28 -15 -28 -8 0 -15 -7 -15 -15 0 -8 5 -15 11 -15 7 0 30 -20 53 -44 48 -52 102 -67 224 -65 l77 2 -70 7 c-103 10 -181 29 -207 50 -21 17 -23 26 -23 117 1 76 6 112 23 158 26 69 25 65 11 65 -5 0 -17 -17 -25 -37z"></path><path id="pTpRbPpvd" d="M2635 2293 c-12 -31 -19 -173 -8 -173 6 0 18 27 27 60 9 32 21 62 26 65 6 4 10 19 10 36 0 24 -4 29 -24 29 -13 0 -27 -8 -31 -17z m12 -60 c-3 -10 -5 -2 -5 17 0 19 2 27 5 18 2 -10 2 -26 0 -35z"></path><path id="p1GQrABjPf" d="M2936 2195 c-8 -8 -21 -15 -29 -15 -22 0 -9 -40 17 -50 20 -7 19 -9 -9 -20 -71 -29 -72 -29 -20 -29 61 -1 97 16 109 52 12 34 2 45 -22 24 -21 -19 -32 -22 -32 -8 0 11 35 25 68 26 17 1 21 -3 16 -17 -3 -12 0 -18 10 -18 12 0 16 10 16 35 l0 35 -54 0 c-35 0 -60 -5 -70 -15z"></path><path id="pnk0DWBr7" d="M2082 2153 c8 -10 18 -26 21 -36 4 -10 11 -15 17 -12 17 11 11 32 -15 49 -32 21 -42 20 -23 -1z"></path><path id="pHqgRiQnZ" d="M3170 2095 c0 -33 2 -35 35 -35 33 0 35 2 35 35 0 37 -25 50 -33 18 -4 -17 -5 -17 -6 0 0 9 -8 17 -16 17 -10 0 -15 -11 -15 -35z"></path><path id="pht8VLwkS" d="M2345 2075 c-11 -42 -42 -84 -79 -106 -41 -25 -25 -24 25 2 43 22 73 73 66 113 -3 18 -5 17 -12 -9z"></path><path id="p10MW9KXVc" d="M2998 2095 c-4 -4 -35 -15 -69 -24 l-61 -17 39 -30 38 -29 -45 -6 c-37 -5 -31 -6 35 -8 78 -2 79 -2 48 -16 -18 -8 -33 -18 -33 -24 0 -5 -14 -14 -31 -20 -24 -8 -37 -7 -60 4 -34 18 -39 3 -7 -19 12 -9 17 -16 11 -16 -7 0 -15 5 -18 10 -9 15 -55 12 -61 -5 -4 -10 -15 -12 -35 -8 -24 5 -29 2 -29 -15 0 -12 9 -22 23 -26 37 -10 77 -7 77 7 0 8 20 12 64 13 67 1 156 30 156 52 0 6 5 12 10 12 6 0 10 6 10 14 0 8 11 17 25 20 21 5 25 12 25 41 0 33 -2 35 -36 35 -19 0 -44 -4 -54 -10 -10 -5 -26 -7 -34 -4 -14 5 -14 9 5 25 11 10 19 25 17 34 -1 9 -6 14 -10 10z"></path><path id="p14Q6L1gy1" d="M2270 2023 c-48 -17 -80 -37 -80 -49 0 -11 7 -10 42 2 44 15 68 31 68 45 0 10 -7 10 -30 2z"></path><path id="pvsEXk82P" d="M2210 1883 c-25 -9 -38 -32 -32 -58 2 -14 7 -23 11 -21 4 3 7 -5 8 -17 2 -81 3 -87 21 -87 13 0 22 12 30 38 6 21 27 53 47 72 19 19 35 44 35 55 0 20 -6 22 -52 23 -29 0 -60 -2 -68 -5z"></path><path id="pYs5zaduK" d="M2190 1634 c0 -14 41 -72 55 -78 11 -4 15 2 15 24 0 17 -4 30 -10 30 -5 0 -10 7 -10 15 0 9 -9 15 -25 15 -14 0 -25 -3 -25 -6z"></path><path id="pbZ8Xdb2p" d="M3177 1578 c-3 -24 -11 -44 -16 -46 -13 -4 -14 -61 -2 -80 5 -9 15 8 29 50 12 35 20 52 18 38 -3 -14 -7 -43 -11 -65 l-6 -40 24 38 c36 56 40 56 16 3 -13 -31 -19 -60 -16 -80 6 -37 -5 -64 -56 -134 -37 -49 -67 -67 -67 -39 0 6 -7 3 -16 -8 -15 -19 -15 -19 -8 10 3 17 21 58 40 91 18 34 38 73 43 88 10 24 8 26 -14 26 -16 0 -25 -6 -25 -16 0 -8 -7 -22 -15 -30 -8 -9 -15 -26 -15 -40 0 -15 -6 -24 -15 -24 -10 0 -15 -10 -15 -29 0 -20 -6 -32 -19 -36 -10 -3 -26 -14 -36 -25 -10 -11 -31 -20 -46 -20 -15 0 -30 -4 -33 -9 -8 -13 -56 0 -56 15 0 8 -9 14 -20 14 -13 0 -22 9 -26 25 -6 23 -11 25 -64 25 -48 0 -59 -3 -63 -19 -3 -13 -17 -19 -51 -23 -30 -4 -52 -13 -61 -24 -19 -25 -18 -34 2 -34 15 0 14 -2 -3 -15 -10 -8 -15 -15 -11 -15 16 0 95 40 123 63 16 12 38 29 49 37 19 14 19 13 -1 -10 -38 -45 -38 -55 0 -26 30 22 36 24 28 9 -6 -11 -18 -26 -27 -33 -17 -14 -39 -50 -31 -50 3 0 22 15 43 32 l38 33 -38 -44 c-41 -50 -46 -65 -18 -56 15 5 18 2 14 -13 -5 -22 12 -39 22 -22 3 5 13 10 22 10 11 0 14 -7 9 -27 -6 -25 -2 -23 45 25 47 48 75 70 52 40 -10 -13 -25 -88 -18 -88 3 0 12 15 22 33 13 24 18 28 21 15 3 -17 4 -17 21 0 9 9 29 36 45 59 16 24 36 48 44 55 9 7 5 -3 -9 -22 -36 -48 -42 -60 -31 -60 5 0 22 18 37 40 15 22 30 39 32 36 4 -4 -62 -131 -79 -153 -14 -17 13 -18 30 -1 29 29 -4 -70 -36 -106 -9 -11 -11 -16 -4 -12 7 4 24 26 38 48 17 26 30 38 40 34 8 -3 12 -2 9 3 -3 5 8 33 25 61 16 28 30 59 30 68 0 20 39 73 40 54 0 -7 -7 -27 -16 -44 -9 -16 -11 -27 -5 -24 6 4 11 2 11 -3 0 -6 -6 -11 -14 -11 -17 0 -26 -22 -25 -63 l1 -32 12 37 c13 43 31 64 24 28 -3 -14 -9 -34 -14 -45 -7 -18 -6 -19 11 -5 17 14 18 14 4 -10 -15 -27 -19 -111 -5 -121 4 -4 -16 -12 -45 -19 -30 -7 -61 -17 -69 -22 -13 -8 -12 -9 2 -4 9 3 45 8 80 12 35 3 73 12 85 20 12 8 32 14 43 14 38 0 120 62 119 89 0 12 -4 11 -15 -6 -20 -28 -43 -20 -36 13 2 14 0 24 -7 24 -6 0 -12 -4 -12 -10 -1 -5 -2 -14 -3 -20 -2 -15 -89 -90 -105 -90 -13 0 -13 2 1 13 28 22 68 110 98 217 33 116 35 124 20 115 -6 -4 -10 21 -11 67 -1 141 -6 223 -19 271 -12 44 -15 47 -45 47 -31 0 -33 -2 -38 -42z m-122 -533 c-23 -36 -25 -36 -25 -13 0 15 9 32 23 41 31 21 32 15 2 -28z"></path><path id="prOB3P3rn" d="M3187 1345 c-24 -50 -20 -58 4 -12 11 22 19 41 17 43 -3 2 -12 -12 -21 -31z"></path><path id="p13SFkfWcz" d="M2660 1121 c-7 -17 -10 -36 -7 -43 3 -7 6 -4 6 7 1 11 8 31 17 43 8 12 11 22 6 22 -5 0 -15 -13 -22 -29z"></path><path id="pyqOVA8tU" d="M2862 945 c6 -14 13 -24 14 -22 6 6 -9 47 -17 47 -5 0 -3 -11 3 -25z"></path><path id="p9jF0tB7L" d="M2530 951 c0 -5 11 -21 25 -35 14 -14 25 -23 25 -19 0 3 -11 18 -25 35 -14 16 -25 25 -25 19z"></path><path id="pKXTbBuyP" d="M2797 916 c10 -13 19 -23 21 -21 5 5 -22 45 -31 45 -4 0 0 -11 10 -24z"></path><path id="p155Gn7BGs" d="M2384 883 c9 -17 20 -35 26 -38 18 -11 10 9 -16 40 l-26 30 16 -32z"></path><path id="pT5iAMHEb" d="M2715 863 c17 -8 38 -23 48 -31 16 -15 17 -14 11 1 -3 10 -22 24 -41 32 -46 20 -56 18 -18 -2z"></path><path id="psDuaAV5v" d="M2600 824 c0 -6 7 -19 15 -30 8 -10 14 -14 14 -9 0 6 -6 19 -14 29 -8 11 -15 15 -15 10z"></path><path id="p8P5REXWj" d="M2470 680 c0 -12 17 -12 45 0 17 7 15 9 -12 9 -18 1 -33 -3 -33 -9z"></path><path id="pGb9QDgR7" d="M1995 620 c17 -4 39 -8 50 -9 16 -1 17 1 5 9 -8 5 -31 9 -50 9 l-35 -1 30 -8z"></path></g></g><g id="l1kfgNQOS4h6QDhhKnAWYDY" fill="rgb(121,139,159)" style="transform: none;"><g style="transform: none;"><path id="phIPpMct0" d="M1486 4983 c-53 -176 -71 -285 -90 -549 -2 -28 -7 -61 -11 -73 -7 -24 2 -81 14 -81 11 0 54 138 48 153 -11 29 22 178 57 255 20 44 36 86 36 93 0 8 16 52 35 99 48 118 48 120 -24 120 -48 0 -61 -3 -65 -17z"></path><path id="pgsvh3z9R" d="M4660 4976 c0 -14 5 -28 10 -31 6 -4 22 -30 36 -58 15 -28 40 -64 57 -80 l30 -28 -39 6 c-68 10 -114 12 -114 3 0 -4 9 -8 19 -8 45 0 70 -30 36 -44 -31 -11 -16 -53 43 -116 47 -51 65 -63 100 -70 39 -7 42 -6 42 15 0 13 -7 25 -15 29 -8 3 -12 12 -9 21 8 21 25 19 18 -2 -4 -10 10 6 30 34 20 29 50 63 66 75 18 13 30 31 30 45 0 21 -4 23 -55 23 -70 0 -72 18 -2 22 l52 3 3 93 3 92 -104 0 c-81 0 -107 -3 -117 -15 -7 -8 -19 -15 -27 -15 -7 0 -16 7 -19 15 -4 9 -19 15 -40 15 -29 0 -34 -3 -34 -24z m225 -242 c9 3 15 0 15 -9 0 -11 -8 -13 -32 -9 -48 8 -58 12 -58 23 0 6 11 6 30 -1 17 -5 37 -7 45 -4z"></path><path id="pVVzjDrHd" d="M2862 4956 c2 -23 9 -41 17 -44 11 -4 13 3 7 29 -10 51 -28 62 -24 15z"></path><path id="pzHJqqKQV" d="M2888 4745 c2 -14 9 -25 14 -25 6 0 7 7 4 16 -3 9 -6 20 -6 25 0 5 -4 9 -9 9 -4 0 -6 -11 -3 -25z"></path><path id="pPBfACSDI" d="M4969 4682 c-47 -52 -53 -67 -9 -25 24 23 42 45 39 48 -3 2 -17 -8 -30 -23z"></path><path id="p1F0P9Opfp" d="M4484 4678 c-4 -6 12 -29 36 -52 24 -22 45 -35 47 -29 6 17 -75 95 -83 81z"></path><path id="ptTmxlPWT" d="M2921 4600 c0 -14 4 -32 9 -40 8 -12 10 -12 9 5 0 11 -4 29 -9 40 -8 18 -9 18 -9 -5z"></path><path id="p7MT2tgzs" d="M4582 4608 c10 -32 188 -97 188 -70 0 17 -37 42 -62 42 -15 0 -47 9 -73 20 -55 24 -58 24 -53 8z"></path><path id="pc41TCPtd" d="M2006 4537 c-16 -5 -26 -16 -26 -28 0 -17 3 -18 20 -7 11 7 20 16 20 20 0 3 20 5 45 4 25 -1 45 1 45 6 0 4 -6 9 -12 9 -45 5 -68 4 -92 -4z"></path><path id="pbWZ31ybm" d="M3781 4477 c-19 -114 -26 -242 -13 -233 7 4 12 33 12 70 0 35 5 100 11 145 14 103 7 115 -10 18z"></path><path id="p24zyoy3c" d="M2120 4531 c0 -9 24 -21 42 -21 6 0 6 6 -2 15 -14 16 -40 20 -40 6z"></path><path id="p11Wjhgnxt" d="M2260 4451 c25 -22 49 -41 53 -41 16 0 -5 20 -51 51 l-47 31 45 -41z"></path><path id="pmbVLO77q" d="M4441 4435 c-9 -36 -7 -71 9 -186 19 -132 19 -147 5 -235 -8 -52 -15 -97 -15 -100 0 -12 33 21 55 56 12 19 41 54 64 76 35 35 41 48 41 82 0 32 -7 49 -32 77 -38 43 -98 186 -98 231 0 50 -16 49 -29 -1z"></path><path id="pFZbBypGO" d="M4510 4456 c6 -17 28 -49 48 -72 62 -71 80 -99 96 -145 21 -58 20 -71 -5 -103 l-21 -27 28 7 c51 12 85 34 95 62 10 26 7 98 -7 154 -6 27 -5 27 26 18 44 -13 103 -15 119 -6 22 14 44 76 31 91 -9 11 -131 35 -181 35 -17 0 -20 -5 -15 -27 9 -43 -14 -64 -69 -65 -44 -1 -50 3 -101 53 -49 48 -54 51 -44 25z m197 -136 c17 0 24 -5 21 -17 -5 -27 -24 -26 -54 2 -20 18 -23 25 -11 21 10 -3 30 -6 44 -6z"></path><path id="pGX7TZBeN" d="M3010 4444 c0 -8 9 -53 20 -99 12 -45 22 -100 24 -121 16 -191 31 -287 56 -369 14 -48 18 -95 18 -239 1 -98 2 -180 5 -182 2 -2 22 14 45 35 23 22 61 50 85 63 33 18 43 30 45 54 4 37 -13 84 -31 84 -9 0 -11 12 -9 39 2 22 -3 51 -12 69 -20 39 -20 62 -1 62 9 0 15 -9 15 -25 0 -14 5 -25 10 -25 13 0 12 28 -3 63 -8 20 -10 60 -6 130 6 97 30 184 114 422 7 18 6 18 -9 -2 -36 -48 -116 -212 -116 -238 0 -26 -28 -165 -51 -247 -5 -21 -21 -50 -34 -65 l-24 -28 -1 30 c0 17 -7 64 -16 105 -8 41 -26 159 -38 262 -24 188 -38 238 -71 238 -8 0 -15 -7 -15 -16z"></path><path id="p161WYJIBp" d="M2890 4346 c0 -73 6 -123 19 -167 10 -35 22 -104 26 -153 6 -83 25 -146 43 -146 10 0 -11 225 -27 290 -6 25 -11 77 -11 116 0 50 -6 86 -20 118 -12 25 -23 46 -25 46 -3 0 -5 -47 -5 -104z"></path><path id="pRc59HgBZ" d="M4954 4403 c-26 -30 -62 -76 -150 -191 -31 -41 -77 -87 -102 -103 l-46 -29 36 0 c31 0 43 8 87 58 106 119 121 137 121 144 0 3 15 21 33 40 49 51 67 77 67 93 0 23 -20 18 -46 -12z"></path><path id="pypEOHHQQ" d="M2433 4261 c29 -43 53 -77 55 -76 6 5 -50 110 -71 133 -42 45 -35 20 16 -57z"></path><path id="pkaZMfY04" d="M3997 4290 c-20 -149 -1 -491 34 -604 17 -57 17 -58 -2 -63 -29 -8 -12 -23 27 -23 27 0 34 4 34 20 0 11 4 20 9 20 5 0 12 11 15 25 4 14 11 25 16 25 5 0 12 15 15 34 5 26 13 35 33 39 15 3 36 9 47 13 18 6 17 4 -2 -10 -16 -12 -23 -28 -23 -52 0 -19 2 -34 4 -34 20 0 156 73 175 94 23 24 23 26 5 27 -12 0 -5 6 19 16 20 8 37 19 37 24 0 5 7 9 15 9 8 0 15 6 15 13 0 16 42 57 58 57 7 0 12 11 12 24 0 18 6 25 23 28 14 2 23 11 25 26 3 16 10 22 28 22 19 0 24 5 24 25 0 14 -4 25 -9 25 -16 0 -79 -56 -128 -115 -53 -65 -123 -109 -188 -120 -148 -25 -198 -51 -211 -109 -7 -36 -33 -90 -40 -83 -2 2 2 17 11 33 8 16 15 41 15 55 0 40 20 89 37 89 8 0 11 -4 8 -10 -3 -5 -2 -10 4 -10 5 0 12 4 15 9 4 5 29 15 56 22 28 7 50 18 50 24 0 25 -106 105 -130 97 -25 -8 -50 -40 -44 -56 3 -9 1 -16 -5 -16 -6 0 -10 -10 -8 -22 1 -17 -3 -23 -18 -23 -17 0 -21 9 -28 70 -4 39 -11 153 -15 255 -6 146 -9 174 -15 130z m338 -540 c-3 -5 -16 -10 -28 -9 -21 0 -21 1 -2 9 28 12 37 12 30 0z"></path><path id="pGT7Mjy9y" d="M4217 4323 c-2 -4 -8 -39 -12 -78 -6 -65 -5 -73 20 -109 15 -22 29 -53 31 -70 24 -198 26 -205 45 -211 30 -10 93 26 97 54 4 25 -28 112 -79 216 -16 33 -29 67 -29 75 0 15 -45 107 -60 123 -4 5 -10 5 -13 0z"></path><path id="p9zEQa0tN" d="M2098 4263 c-20 -5 -13 -33 9 -33 8 0 11 5 8 10 -3 6 3 10 14 10 12 0 21 5 21 10 0 10 -21 11 -52 3z"></path><path id="pxXkgPTmJ" d="M1930 4234 c-79 -31 -102 -49 -34 -28 27 9 73 22 102 29 65 15 77 25 31 24 -19 0 -63 -12 -99 -25z"></path><path id="p4oxrRI9o" d="M2021 4226 c-14 -8 -30 -12 -35 -10 -15 5 -51 -24 -41 -33 4 -5 10 -2 12 5 3 6 17 12 31 12 42 0 72 11 72 26 0 17 -8 17 -39 0z"></path><path id="p6c5qFOXn" d="M2601 4134 c-12 -15 -21 -30 -21 -34 0 -5 19 -32 43 -62 40 -51 42 -52 45 -27 2 15 12 35 23 45 10 9 19 24 19 33 0 25 -29 61 -44 55 -8 -3 -17 -1 -21 5 -10 17 -22 13 -44 -15z"></path><path id="ppiRCI981" d="M3728 3941 c-4 -194 -5 -200 -32 -253 -33 -64 -56 -128 -46 -128 4 0 22 11 41 24 19 14 53 37 76 53 29 19 41 33 38 44 -3 9 -7 67 -9 130 -6 166 -20 270 -40 302 -10 15 -19 27 -21 27 -1 0 -4 -90 -7 -199z"></path><path id="phMmWM6ka" d="M2558 4055 c6 -11 26 -38 46 -60 l36 -40 -20 36 c-22 39 -81 100 -62 64z"></path><path id="pS4Xk84NX" d="M2872 3972 c2 -4 22 -46 45 -93 55 -110 100 -250 121 -371 17 -102 32 -128 32 -57 0 125 -146 529 -192 529 -5 0 -8 -4 -6 -8z"></path><path id="pDuyPCPRe" d="M2780 3964 c0 -6 5 -25 11 -42 8 -24 8 -39 -2 -61 -7 -16 -17 -27 -21 -25 -14 9 -9 -5 46 -114 70 -140 101 -233 122 -364 15 -100 15 -110 0 -133 -18 -28 -21 -51 -6 -60 6 -3 14 5 20 19 5 14 20 32 33 41 13 8 30 26 37 40 10 18 16 22 21 13 6 -9 16 -8 43 5 37 17 48 37 21 37 -8 0 -15 9 -15 20 0 13 7 20 20 20 11 0 20 5 20 10 0 6 9 10 20 10 11 0 20 4 20 9 0 5 9 11 21 14 11 3 23 15 26 26 3 12 12 21 19 21 8 0 14 5 14 10 0 6 6 10 14 10 8 0 21 6 28 13 13 12 84 37 107 37 6 0 11 -7 11 -15 0 -9 11 -21 25 -27 14 -6 25 -17 25 -25 0 -7 5 -13 10 -13 6 0 10 5 10 11 0 7 7 17 16 24 14 10 13 13 -10 28 -14 10 -26 26 -26 38 0 28 -25 34 -78 20 -77 -20 -147 -57 -207 -110 -32 -28 -64 -52 -72 -52 -27 -3 -31 -4 -39 -12 -4 -4 -11 -26 -15 -50 -6 -41 -7 -41 -8 16 -2 99 -61 354 -92 397 -8 12 -9 10 -4 -9 4 -13 3 -21 -1 -18 -8 5 -20 28 -70 131 -20 42 -93 128 -94 110z m235 -660 c-3 -18 -12 -38 -21 -44 -13 -11 -13 -10 -6 11 5 13 13 53 18 89 9 63 9 64 12 20 2 -24 1 -59 -3 -76z"></path><path id="p11I6m5oiF" d="M2770 3720 c16 -33 30 -73 30 -89 0 -19 6 -30 18 -33 21 -6 62 -115 78 -213 l12 -70 1 72 c1 55 -5 89 -24 140 -24 62 -129 253 -141 253 -2 0 9 -27 26 -60z"></path><path id="p11SnvGvUb" d="M3777 3625 c-16 -8 -46 -28 -66 -44 -42 -33 -101 -50 -149 -43 -31 4 -31 4 -28 -33 4 -42 21 -57 54 -48 24 6 30 28 10 36 -7 3 1 6 17 6 46 2 75 12 75 27 0 8 10 14 25 14 16 0 25 6 25 15 0 8 9 15 20 15 11 0 20 4 20 9 0 5 14 12 30 16 21 5 30 13 30 26 0 23 -24 25 -63 4z"></path><path id="p18cUGzaAu" d="M3860 3623 c0 -10 -16 -29 -35 -42 -34 -23 -48 -61 -22 -61 6 0 35 12 62 26 34 17 63 24 90 22 27 -2 40 1 39 10 -1 6 -2 18 -2 26 -1 7 -22 19 -46 25 -64 16 -86 14 -86 -6z"></path><path id="pRCGKD1nW" d="M3885 3540 l-20 -9 20 0 c11 0 29 4 40 9 l20 9 -20 0 c-11 0 -29 -4 -40 -9z"></path><path id="pgIB6Ysgd" d="M2670 3448 c13 -13 34 -30 46 -38 12 -9 41 -32 63 -53 22 -20 43 -37 46 -37 3 0 5 14 5 30 0 28 -3 30 -35 30 -32 0 -35 2 -35 30 0 23 -4 30 -20 30 -11 0 -20 7 -20 15 0 11 -11 15 -37 15 l-37 0 24 -22z"></path><path id="p8thXjFTy" d="M3097 3454 c-4 -4 -7 -14 -7 -23 0 -11 3 -12 11 -4 6 6 10 16 7 23 -2 6 -7 8 -11 4z"></path><path id="pRYL72fcT" d="M2837 3301 c-3 -13 3 -23 18 -31 17 -9 23 -21 22 -46 -1 -19 -5 -34 -9 -34 -20 0 -23 2 -20 16 3 16 -24 19 -33 4 -5 -8 -11 -8 -20 0 -7 6 -20 8 -28 4 -11 -4 -27 7 -48 31 -27 30 -34 34 -41 21 -14 -25 -28 -19 -29 12 -2 24 -2 25 -6 4 -3 -17 -9 -22 -21 -17 -39 16 -53 17 -50 4 2 -9 -4 -13 -14 -11 -10 2 -18 -2 -18 -8 0 -5 9 -10 19 -10 11 0 23 -4 26 -10 3 -5 25 -10 48 -10 33 0 46 -5 61 -25 12 -16 29 -25 47 -25 15 0 31 -4 34 -10 3 -5 14 -10 24 -10 10 0 24 -7 31 -15 7 -8 30 -20 52 -25 46 -13 78 -42 78 -70 0 -15 7 -20 25 -20 29 0 30 3 11 38 -8 15 -19 39 -24 54 -8 20 -21 29 -46 34 -33 6 -35 9 -32 37 2 17 9 33 15 35 9 3 9 7 0 18 -6 8 -9 23 -6 34 3 13 -2 25 -16 35 -29 20 -44 19 -50 -4z"></path><path id="p1GdhvvLLl" d="M3080 2823 c0 -45 41 -113 67 -113 13 0 23 2 23 4 0 24 -69 136 -84 136 -3 0 -6 -12 -6 -27z"></path><path id="pgWJLuAfu" d="M2890 2506 c0 -8 8 -17 18 -19 16 -4 16 -5 0 -6 -10 0 -18 -7 -18 -15 0 -12 58 -26 111 -26 24 0 25 27 2 33 -17 4 -17 5 0 6 29 2 19 28 -14 35 -55 11 -99 7 -99 -8z"></path><path id="pkg33TLPh" d="M3074 2443 c21 -21 52 -61 68 -90 17 -29 34 -53 39 -53 5 0 9 16 9 35 0 24 -5 35 -15 35 -9 0 -15 9 -15 25 0 16 -6 25 -15 25 -8 0 -15 7 -15 16 0 25 -26 44 -61 44 l-33 0 38 -37z"></path><path id="p1AZQiUX5M" d="M3040 2434 c0 -18 23 -44 39 -44 6 0 11 -9 11 -20 0 -11 7 -20 15 -20 9 0 15 -9 15 -25 0 -16 6 -25 15 -25 8 0 15 2 15 5 0 13 -35 72 -62 108 -32 39 -48 47 -48 21z"></path><path id="pE6Pe9h83" d="M1988 2414 c-41 -12 -12 -19 89 -22 80 -2 105 0 96 9 -11 11 -156 22 -185 13z"></path><path id="ppdVfHeVd" d="M1875 2394 c-47 -14 -105 -61 -105 -84 0 -18 22 -10 42 15 24 31 61 51 111 60 20 4 37 11 37 16 0 12 -26 10 -85 -7z"></path><path id="pF72NMiyj" d="M1750 2261 c-5 -11 -10 -27 -10 -35 0 -28 16 -17 27 19 12 37 1 48 -17 16z"></path><path id="p7MG355Lq" d="M2626 2239 c-9 -49 -7 -147 4 -154 6 -4 10 28 10 89 0 53 -2 96 -4 96 -2 0 -6 -14 -10 -31z"></path><path id="piKEEiVo9" d="M2652 2245 c2 -23 3 -23 20 -8 14 13 16 18 6 25 -22 13 -28 9 -26 -17z"></path><path id="p1FGGmfY8Q" d="M1726 2178 c-3 -13 -6 -39 -6 -58 0 -53 -10 -79 -26 -73 -8 3 -14 0 -14 -7 0 -6 8 -14 18 -17 10 -2 27 -18 36 -35 22 -35 87 -68 136 -67 29 1 25 3 -25 15 -41 9 -68 23 -83 41 -22 24 -24 33 -20 125 3 94 -3 123 -16 76z"></path><path id="pcjBVRXbQ" d="M2909 2188 c-13 -9 -15 -16 -7 -34 l11 -23 38 26 c22 14 39 30 39 34 0 13 -62 10 -81 -3z"></path><path id="phmz5HxfW" d="M2974 2147 c-16 -13 -47 -34 -69 -45 l-40 -21 38 -1 c50 0 95 24 103 56 9 36 1 38 -32 11z"></path><path id="p8Fgm7YEA" d="M3030 2142 c0 -10 -5 -23 -12 -30 -9 -9 -8 -12 5 -12 12 0 17 8 17 30 0 17 -2 30 -5 30 -3 0 -5 -8 -5 -18z"></path><path id="p137BqsgBu" d="M3150 2090 c0 -11 -7 -20 -15 -20 -25 0 -135 -54 -135 -67 0 -6 -8 -14 -17 -16 -10 -2 -4 -3 13 0 22 2 31 -1 31 -12 0 -8 -9 -15 -21 -15 -17 0 -18 -2 -6 -10 17 -10 17 -10 -33 -33 -46 -21 -67 -21 -93 -2 -30 23 -42 17 -14 -7 27 -23 29 -23 -41 -2 -15 5 -22 1 -26 -15 -3 -11 -9 -18 -14 -15 -5 3 -9 0 -9 -6 0 -8 30 -10 98 -7 104 4 186 27 202 57 5 10 21 21 35 24 14 4 25 13 25 21 0 9 11 21 25 27 14 6 25 19 25 28 0 10 9 20 20 23 15 4 20 14 20 38 0 31 -1 32 -15 13 -13 -16 -14 -16 -9 -1 5 13 1 17 -20 17 -19 0 -26 -5 -26 -20z"></path><path id="pqgJVV6RF" d="M2311 2002 c-20 -30 -21 -34 -5 -22 24 18 44 41 44 52 0 18 -16 6 -39 -30z"></path><path id="poVMKsPgo" d="M3182 1623 c-6 -21 -13 -72 -16 -113 l-6 -75 30 80 c26 70 29 74 24 35 -4 -25 -11 -53 -16 -63 -5 -10 -7 -23 -5 -30 2 -7 19 18 37 55 32 62 33 69 21 107 -9 33 -17 41 -35 41 -18 0 -25 -8 -34 -37z"></path><path id="piKFsimPc" d="M3242 1494 c-25 -62 -23 -83 3 -37 l16 28 -5 -32 c-3 -18 -1 -35 4 -38 17 -11 23 23 14 80 l-9 56 -23 -57z"></path><path id="pxMPUHGJg" d="M3100 1375 c0 -53 13 -46 48 28 2 4 -8 7 -22 7 -23 0 -26 -4 -26 -35z"></path><path id="povufDMdF" d="M3217 1343 l-18 -38 20 25 c18 22 28 50 18 50 -2 0 -11 -17 -20 -37z"></path><path id="p5uV7rLLO" d="M3267 1363 c-11 -10 -8 -51 3 -58 6 -4 10 8 10 29 0 37 -2 41 -13 29z"></path><path id="p18tdbtlrf" d="M3040 1285 c0 -9 -7 -18 -15 -21 -8 -4 -15 -16 -15 -29 0 -20 -6 -23 -47 -27 -56 -4 -163 11 -163 23 0 20 -27 7 -43 -21 -10 -16 -22 -30 -28 -30 -5 0 -9 -5 -9 -12 0 -7 15 3 34 21 l34 33 -5 -40 c-7 -51 6 -58 53 -30 36 21 37 21 30 3 -5 -11 -11 -29 -14 -40 -4 -18 -2 -18 24 5 16 14 30 28 32 33 9 19 22 4 16 -20 -5 -19 -3 -25 4 -18 6 6 12 21 14 35 1 14 8 24 13 22 6 -2 8 -11 7 -20 -6 -28 102 80 115 115 11 32 11 33 -13 33 -15 0 -24 -6 -24 -15z"></path><path id="p2UFc8ygN" d="M3149 1245 c-18 -24 -40 -47 -50 -50 -19 -6 -59 -64 -59 -85 0 -9 3 -10 13 -1 8 6 17 8 21 4 4 -4 5 -1 2 7 -4 8 4 26 16 40 13 14 19 20 15 13 -5 -7 -7 -18 -5 -24 2 -7 15 10 27 37 13 27 32 61 43 77 11 15 17 27 14 27 -2 0 -19 -20 -37 -45z"></path><path id="pIKPWMYTN" d="M3201 1214 c-12 -15 -21 -31 -21 -37 0 -6 11 4 25 23 14 19 25 35 25 37 0 9 -11 0 -29 -23z"></path><path id="pT0ybK3cq" d="M3234 1213 c-9 -45 -25 -71 -45 -76 -11 -3 -19 -11 -19 -17 0 -8 9 -10 27 -5 27 6 27 6 10 -13 -17 -19 -17 -19 9 -14 19 3 25 1 20 -7 -4 -6 -3 -11 3 -11 12 0 26 24 35 63 4 19 3 26 -4 22 -6 -4 -10 10 -10 39 0 51 -16 62 -26 19z"></path><path id="pVhh3D7Qp" d="M3165 1036 c-12 -17 -14 -33 -8 -55 l8 -30 23 41 c18 34 19 38 4 25 -28 -25 -34 -20 -17 13 19 36 12 40 -10 6z"></path><path id="pwp4D4xR" d="M2475 680 c-4 -7 3 -8 22 -4 38 9 42 14 10 14 -14 0 -29 -5 -32 -10z"></path></g></g><g id="l3HAlVGmbMrfFkfNHa53Hvg" fill="rgb(210,185,168)" style="transform: none;"><g style="transform: none;"><path id="psp1Qy6WW" d="M1992 4528 c-84 -42 -94 -50 -89 -68 3 -12 0 -17 -7 -14 -16 6 -98 -165 -187 -390 -29 -72 -17 -79 13 -9 27 62 48 87 56 64 9 -28 50 -60 85 -66 28 -5 47 -2 77 14 22 12 49 21 59 21 23 0 37 30 19 41 -10 6 -10 11 -2 19 9 9 22 5 52 -14 34 -21 45 -24 74 -16 18 6 34 10 35 10 2 0 3 -11 3 -25 0 -14 -4 -25 -10 -25 -5 0 -7 -6 -4 -14 3 -9 -4 -19 -17 -27 -20 -10 -21 -13 -7 -23 8 -6 24 -29 36 -52 11 -23 32 -48 46 -58 14 -9 33 -31 42 -49 9 -17 20 -34 24 -37 4 -3 14 -18 23 -35 8 -16 27 -41 41 -54 14 -14 26 -30 26 -37 0 -7 19 -19 43 -25 23 -6 36 -14 30 -16 -37 -13 20 -106 76 -124 20 -6 43 -17 51 -25 8 -7 36 -22 63 -33 26 -11 47 -25 47 -30 0 -5 8 -12 18 -15 9 -4 39 -26 65 -51 26 -25 52 -45 57 -45 6 0 10 -8 10 -18 0 -10 12 -25 26 -32 37 -20 44 -3 44 105 -1 113 -25 180 -130 350 -40 66 -87 144 -104 172 -69 118 -94 149 -151 196 -33 27 -82 60 -108 73 -26 14 -55 31 -65 40 -70 61 -84 68 -141 68 -156 -1 -345 -48 -403 -101 -22 -19 -23 -11 -4 25 8 16 22 56 31 91 9 35 27 75 40 90 14 14 38 41 55 59 16 18 30 37 30 42 0 6 6 10 13 10 8 0 22 9 33 21 14 16 28 20 61 17 24 -2 43 0 43 4 0 19 -79 16 -118 -4z m112 -318 c25 -63 19 -81 -9 -22 -25 55 -35 60 -74 38 -14 -8 -30 -12 -35 -10 -15 5 -41 -17 -49 -40 -6 -15 -10 -17 -19 -8 -7 7 -25 12 -42 12 -18 0 -26 4 -20 9 14 14 157 56 197 59 32 2 36 -1 51 -38z m69 15 c10 -14 13 -25 8 -25 -5 0 -13 5 -16 10 -3 6 -11 10 -16 10 -6 0 -1 -13 10 -29 12 -16 21 -32 21 -36 0 -16 -32 21 -51 57 l-19 38 22 0 c13 0 31 -12 41 -25z m677 -734 c12 -29 19 -55 17 -58 -4 -3 -31 62 -52 122 -15 44 15 -11 35 -64z"></path><path id="p2tJGhzo7" d="M2120 4530 c0 -5 4 -10 9 -10 5 0 18 -3 28 -7 16 -6 16 -5 4 10 -15 19 -41 23 -41 7z"></path><path id="pBMmsUx4d" d="M2309 4407 c30 -31 57 -54 60 -52 6 7 -46 62 -84 87 -19 13 -10 0 24 -35z"></path><path id="pyW2UCXEJ" d="M4965 4410 c-18 -20 -17 -20 8 -20 20 0 27 5 27 20 0 11 -4 20 -8 20 -5 0 -17 -9 -27 -20z"></path><path id="p118B8wi0I" d="M4893 4322 c-33 -46 -38 -58 -25 -61 9 -2 21 5 27 14 5 10 20 27 33 38 20 19 31 68 15 66 -5 0 -27 -26 -50 -57z"></path><path id="pgvuv6o6n" d="M2380 4347 c0 -4 18 -31 39 -60 21 -29 53 -80 69 -113 17 -34 39 -65 49 -68 15 -6 14 -4 -3 16 -12 13 -38 55 -58 94 -34 66 -95 149 -96 131z"></path><path id="pERq7Y3Vd" d="M4751 4146 c-31 -32 -32 -36 -15 -36 26 0 57 33 52 55 -2 13 -11 8 -37 -19z"></path><path id="pLsLz0uuQ" d="M4599 4048 l-44 -33 35 -3 c19 -2 36 1 38 7 2 6 10 11 18 11 8 0 14 10 14 25 0 33 -8 32 -61 -7z"></path><path id="p4jZO2Ogt" d="M4300 3790 c0 -5 -16 -10 -35 -10 -28 0 -35 -4 -35 -19 0 -13 -8 -21 -22 -23 -19 -2 -24 -10 -26 -40 -2 -21 -1 -38 2 -38 3 0 22 11 42 25 24 17 31 25 19 25 -14 0 -15 3 -6 14 14 17 53 32 104 41 52 8 51 35 -3 35 -22 0 -40 -4 -40 -10z"></path><path id="p4hVoHIpX" d="M4084 3675 l-21 -45 27 0 c30 0 40 15 40 61 0 43 -22 35 -46 -16z"></path><path id="pRHuCZaLM" d="M3840 3622 c0 -12 -13 -30 -30 -42 -19 -14 -30 -30 -30 -45 0 -28 16 -26 65 10 34 25 90 36 120 25 23 -9 55 5 55 23 0 13 -58 31 -137 43 -39 6 -43 5 -43 -14z"></path><path id="pFpj1qhDb" d="M3710 3579 c-39 -28 -71 -42 -105 -47 -47 -7 -50 -9 -50 -37 0 -30 0 -30 62 -33 42 -2 72 2 93 13 40 21 38 35 -5 35 -19 0 -35 5 -35 10 0 6 14 10 30 10 20 0 30 5 30 15 0 8 9 15 20 15 16 0 20 7 20 30 0 17 -1 30 -2 29 -2 0 -28 -18 -58 -40z"></path><path id="py1WI8N1J" d="M3358 3552 c-27 -8 -48 -21 -48 -28 0 -14 -55 -38 -69 -30 -5 4 -25 -9 -43 -28 -39 -40 -96 -76 -120 -76 -13 0 -18 -8 -18 -29 0 -16 -4 -41 -10 -55 -14 -37 0 -39 63 -9 39 18 57 33 57 45 0 10 -4 18 -10 18 -5 0 -7 7 -4 15 4 8 12 15 20 15 8 0 14 9 14 20 0 11 6 20 14 20 11 0 13 -10 9 -41 -4 -23 -2 -40 3 -38 5 2 32 16 59 30 28 15 77 32 110 39 87 17 89 18 102 45 10 23 9 27 -14 38 -13 7 -30 24 -36 37 -15 30 -22 31 -79 12z"></path><path id="pyiVlqoO4" d="M2977 3452 c-5 -7 -13 -10 -18 -7 -5 4 -9 -6 -9 -22 0 -22 -2 -25 -10 -13 -8 12 -10 10 -10 -8 0 -13 4 -20 10 -17 6 4 7 -5 4 -24 -3 -16 -1 -45 6 -64 9 -29 8 -41 -4 -66 -9 -16 -16 -38 -16 -47 0 -35 58 103 64 151 6 58 -5 137 -17 117z"></path><path id="pb3w1leTi" d="M3022 3308 c-6 -23 -9 -44 -7 -46 2 -2 9 15 15 38 6 23 9 44 7 46 -2 3 -9 -14 -15 -38z"></path><path id="pzobzAqDP" d="M2575 3260 c-3 -5 -12 -7 -20 -4 -8 3 -21 -5 -30 -20 -17 -26 -63 -46 -118 -50 -47 -4 -47 -4 -47 -29 0 -13 10 -33 23 -44 24 -22 87 -53 109 -53 7 0 24 -9 37 -19 l24 -19 -27 -25 c-27 -25 -81 -49 -139 -62 -19 -4 -27 -11 -25 -22 2 -11 33 -23 103 -40 92 -23 105 -24 165 -13 77 15 94 28 122 93 28 64 54 62 52 -4 -2 -45 -36 -142 -59 -167 -19 -21 -83 -32 -89 -16 -3 7 -1 16 4 19 16 10 11 45 -6 52 -9 3 -31 1 -50 -6 -27 -10 -39 -9 -70 4 -51 21 -79 19 -97 -8 -9 -13 -29 -30 -46 -37 -37 -15 -44 -46 -8 -35 54 17 80 17 115 -1 20 -11 38 -22 40 -26 2 -5 13 -2 25 4 12 7 26 11 31 10 5 -2 18 5 29 15 14 13 19 14 15 4 -2 -8 -33 -27 -67 -42 -73 -30 -94 -55 -65 -76 10 -7 27 -13 38 -13 27 -1 60 -26 51 -39 -9 -16 -43 -14 -52 3 -10 17 -82 66 -97 66 -6 0 3 -11 19 -25 l30 -25 -43 -37 c-63 -55 -79 -147 -46 -261 13 -42 14 -60 5 -74 -16 -25 -14 -41 11 -92 26 -54 77 -87 102 -67 9 8 16 24 16 37 0 26 10 30 28 12 17 -17 24 -6 29 47 6 48 0 54 -29 28 -14 -13 -18 -13 -18 -2 1 22 38 96 39 77 2 -33 16 -17 45 50 61 137 97 162 236 160 l85 -1 -85 -7 c-98 -8 -148 -26 -178 -65 -28 -35 -64 -133 -59 -159 4 -20 4 -20 6 2 0 12 5 22 11 22 5 0 7 -7 4 -15 -11 -28 7 -37 31 -15 20 19 37 22 117 25 l93 3 0 -34 c0 -32 -2 -34 -35 -34 l-35 -1 32 -14 c17 -7 36 -23 42 -34 l12 -21 37 20 c20 11 49 20 65 20 25 0 27 -3 21 -27 -12 -51 -46 -75 -122 -88 l-43 -7 47 -33 47 -34 -39 -4 c-34 -3 -32 -4 14 -5 31 -1 76 6 109 18 74 26 80 24 18 -6 -48 -23 -48 -24 -15 -19 27 4 30 3 15 -4 -11 -5 -31 -10 -45 -11 l-25 -2 25 -7 c28 -8 22 -13 -41 -36 -63 -22 -128 -28 -147 -13 -12 10 -16 10 -19 0 -3 -6 -9 -10 -14 -6 -5 3 -9 -2 -9 -11 0 -9 -5 -13 -11 -10 -6 4 -40 11 -76 15 -60 8 -70 12 -103 49 -21 23 -42 41 -47 41 -5 0 -41 -11 -79 -24 -158 -53 -229 -111 -264 -210 -37 -108 -30 -127 99 -253 70 -69 181 -153 203 -153 5 0 15 -15 23 -33 8 -19 21 -40 30 -47 12 -10 15 -23 10 -47 -7 -38 1 -40 48 -18 29 14 30 14 13 0 -11 -8 -16 -15 -12 -15 14 0 62 29 76 45 7 9 23 21 34 27 17 9 19 8 9 -3 -22 -23 -14 -32 13 -14 25 16 25 16 14 -6 -10 -19 -10 -21 3 -16 12 5 14 -1 10 -32 -4 -29 -1 -39 11 -44 8 -3 18 -2 21 4 4 5 19 16 35 24 l29 15 -15 -35 c-21 -50 -18 -51 24 -11 l37 37 6 -28 6 -28 4 30 c3 19 11 31 23 33 11 3 16 0 12 -7 -16 -25 14 -8 43 24 17 20 31 32 31 28 0 -27 123 239 146 315 17 57 31 89 37 83 6 -6 3 -26 -6 -53 -21 -59 -30 -101 -19 -94 10 6 34 84 32 100 -1 5 4 12 10 16 9 6 6 23 -14 65 -16 35 -26 75 -26 102 0 40 -2 44 -22 41 -22 -3 -23 -8 -29 -133 -4 -110 -9 -140 -32 -196 -15 -36 -27 -69 -27 -73 0 -16 -28 -32 -80 -45 -30 -8 -61 -22 -68 -33 -21 -29 -32 -21 -32 21 0 35 -3 39 -30 44 -45 9 -99 49 -104 77 -3 14 -8 84 -11 155 -5 118 -3 133 15 163 11 18 30 36 42 41 39 15 117 31 148 31 37 0 144 52 183 88 15 14 27 34 27 45 0 26 18 57 52 89 25 23 28 33 28 87 0 72 -45 221 -66 221 -8 0 -14 -8 -15 -17 0 -10 -5 -3 -10 15 -5 17 -14 32 -19 32 -6 0 -10 7 -10 15 0 9 -11 20 -25 25 -14 5 -25 16 -25 25 0 8 -9 15 -20 15 -11 0 -20 4 -20 10 0 5 -22 12 -49 16 -44 6 -50 9 -55 36 -6 31 7 68 25 68 6 0 32 23 58 50 37 38 51 47 58 38 17 -22 62 -162 69 -217 5 -42 10 -51 27 -51 18 0 19 4 13 73 -13 135 -27 190 -65 257 -21 36 -44 82 -50 102 -7 20 -22 52 -34 70 -13 18 -40 68 -61 110 -35 69 -42 78 -72 84 -39 7 -84 39 -84 59 0 8 -5 17 -12 21 -8 5 -9 0 -6 -14 6 -22 -6 -30 -17 -12 -3 6 -19 10 -34 10 -19 0 -35 9 -50 29 -19 25 -28 28 -61 25 -22 -2 -42 1 -45 6 -8 13 -32 13 -40 0z m45 -110 c12 -8 9 -10 -13 -10 -16 0 -26 4 -22 10 8 12 16 12 35 0z m200 -426 c0 -15 -14 -51 -31 -81 -22 -38 -30 -62 -26 -81 13 -66 14 -65 -35 -85 -67 -29 -78 -21 -65 45 7 37 21 65 46 94 20 23 48 62 63 88 31 52 48 59 48 20z m-215 -231 c-4 -10 -15 -43 -25 -73 -19 -58 -69 -170 -76 -170 -2 0 -4 40 -4 89 0 85 1 90 33 129 20 27 40 41 56 41 18 1 22 -3 16 -16z m440 -29 c19 -9 46 -31 60 -50 38 -50 83 -146 91 -193 7 -45 21 -61 35 -40 5 8 9 9 9 3 0 -6 -7 -17 -15 -24 -8 -7 -15 -25 -15 -40 0 -15 -7 -34 -17 -41 -15 -13 -15 -12 -2 8 30 49 -34 247 -107 331 -16 18 -47 39 -69 47 -22 8 -32 14 -22 15 11 0 34 -7 52 -16z m-10 -61 c30 -34 78 -128 73 -143 -1 -5 -44 33 -95 86 l-92 97 45 -7 c31 -4 52 -14 69 -33z"></path><path id="prpHGPZsi" d="M1960 2410 c-89 -13 -146 -36 -170 -70 -32 -45 -61 -138 -67 -218 -5 -63 -9 -75 -27 -82 -21 -8 -21 -8 -1 -15 11 -5 28 -17 37 -29 17 -20 17 -20 7 14 -23 79 18 250 76 317 47 55 98 68 250 66 81 -1 114 2 103 8 -26 14 -134 19 -208 9z"></path><path id="pS5VSjajz" d="M2627 2223 c-9 -9 -8 -125 1 -140 4 -6 8 24 9 68 1 81 1 84 -10 72z"></path><path id="pjGgKm5d3" d="M2974 2145 c-16 -15 -45 -34 -64 -43 l-35 -16 32 -4 c43 -4 89 21 97 54 10 37 3 39 -30 9z"></path><path id="pYFWLKpVl" d="M2341 2058 c-7 -20 -22 -49 -33 -64 l-22 -27 27 17 c26 18 52 75 44 99 -2 6 -9 -5 -16 -25z"></path><path id="py5ltUFGj" d="M2558 2034 c-4 -3 -37 -9 -75 -13 l-68 -8 76 -2 c52 -1 81 3 95 14 19 14 19 14 -2 15 -11 0 -23 -3 -26 -6z"></path><path id="p14iMsDSkw" d="M3060 1599 l0 -40 38 3 c35 3 37 5 40 41 l3 37 -40 0 -41 0 0 -41z"></path></g></g><g id="l78aPgJ9V2aufg0XcUNp7kO" fill="rgb(250,241,234)" style="transform: none;"><g style="transform: none;"><path id="p3qPzhVYH" d="M2329 4390 c40 -41 85 -92 99 -112 29 -45 38 -50 18 -10 -20 38 -98 124 -149 164 -27 21 -16 7 32 -42z"></path><path id="p16lLS17KG" d="M1905 4430 c-10 -11 -24 -20 -30 -20 -13 0 -29 -29 -22 -37 7 -7 37 9 37 20 0 6 10 21 22 34 12 13 19 23 16 23 -3 0 -13 -9 -23 -20z"></path><path id="p3lqfQVEx" d="M4961 4400 c-37 -40 -119 -140 -170 -209 -42 -56 -50 -62 -126 -103 -38 -20 -93 -66 -150 -124 -49 -50 -104 -98 -121 -107 -17 -9 -75 -25 -129 -37 -54 -11 -109 -27 -122 -35 -14 -9 -29 -36 -38 -70 -27 -93 -66 -108 -213 -84 -77 13 -101 6 -186 -56 -26 -19 -62 -39 -80 -44 -19 -5 -30 -13 -27 -22 2 -8 4 -22 5 -32 0 -20 3 -20 90 -2 36 7 101 40 145 74 29 22 45 26 105 27 111 2 205 34 255 88 14 14 21 26 16 26 -5 0 4 13 20 30 19 20 45 33 84 41 46 10 71 25 141 83 142 118 312 280 375 357 33 40 79 95 103 123 23 28 47 57 53 64 6 7 9 20 7 30 -3 14 -10 10 -37 -18z"></path><path id="pgueqd414" d="M4003 4100 c0 -41 2 -58 4 -37 2 20 2 54 0 75 -2 20 -4 3 -4 -38z"></path><path id="plQ9bvZGc" d="M4482 4031 c-7 -41 -10 -76 -8 -78 12 -13 27 44 24 95 l-3 57 -13 -74z"></path><path id="p8eVLt2lp" d="M4011 3943 c-1 -54 19 -193 31 -213 6 -10 7 -5 3 17 -3 17 -12 78 -19 135 -8 60 -14 86 -15 61z"></path><path id="poDYeCmrv" d="M3180 3743 c-22 -74 -41 -266 -25 -251 4 4 12 51 16 103 4 53 15 123 24 157 22 88 12 82 -15 -9z"></path><path id="p15if8grVM" d="M4062 3707 c-8 -9 -12 -26 -10 -39 l3 -23 13 23 c7 13 12 30 10 39 -3 15 -4 15 -16 0z"></path><path id="pgbkSkSi4" d="M2800 3653 c0 -10 -7 -27 -15 -37 -22 -29 -19 -53 19 -141 45 -106 62 -136 70 -128 4 4 11 1 16 -7 15 -24 17 -9 10 76 -5 67 -14 97 -48 168 -42 87 -52 100 -52 69z"></path><path id="pYvgDXACh" d="M3344 3545 c-65 -20 -105 -44 -162 -96 -30 -27 -58 -49 -63 -49 -15 0 -10 -45 8 -67 l17 -21 46 23 c47 24 73 55 65 77 -2 7 1 20 8 28 15 19 82 50 106 50 26 0 44 25 36 50 -7 23 -6 23 -61 5z"></path><path id="p8nLJ9qIm" d="M3400 3482 c-55 -21 -93 -42 -87 -49 3 -2 20 3 37 12 18 9 44 15 58 12 18 -3 26 0 29 14 3 10 12 20 22 22 12 4 12 5 1 5 -8 0 -35 -7 -60 -16z"></path><path id="pK0OoGDsR" d="M3060 3355 c0 -20 -5 -45 -10 -55 -6 -12 -7 -21 -1 -25 6 -3 15 4 21 15 16 29 17 92 3 97 -9 3 -13 -7 -13 -32z"></path><path id="p10aIhQZYz" d="M2531 3155 c-17 -20 -31 -40 -31 -45 0 -17 41 -21 89 -9 58 15 76 9 99 -31 21 -36 33 -34 44 9 11 42 -14 78 -68 97 -67 23 -98 18 -133 -21z"></path><path id="pxkrtp6FP" d="M2520 2902 c0 -9 64 -42 80 -42 18 0 11 29 -9 40 -23 12 -71 13 -71 2z"></path><path id="pCdWuiF70" d="M3015 2706 c-30 -31 -59 -56 -64 -56 -5 0 -21 -21 -36 -47 l-26 -47 22 -17 c14 -10 20 -22 16 -33 -5 -12 0 -16 21 -16 47 0 101 -20 136 -50 37 -33 91 -128 118 -209 l18 -56 -5 140 c-5 151 -21 249 -56 348 -25 69 -34 82 -66 92 -18 5 -33 -4 -78 -49z"></path><path id="pcNAdpeu8" d="M2618 2673 c-49 -15 -61 -29 -30 -35 17 -4 77 26 88 43 7 11 1 10 -58 -8z"></path><path id="p3i2y512p" d="M2622 2560 c-8 -14 -23 -20 -48 -20 -39 0 -74 -31 -99 -87 -27 -59 5 -327 35 -297 16 16 113 258 142 355 18 57 -4 91 -30 49z"></path><path id="pfLKhI1rZ" d="M2809 2470 c-68 -12 -106 -35 -130 -81 -11 -23 -18 -43 -16 -45 2 -3 10 9 16 25 24 57 85 91 162 91 32 0 39 -4 39 -19 0 -11 41 -61 91 -113 97 -98 129 -141 129 -172 0 -36 -23 -95 -39 -99 -9 -2 3 -4 25 -4 l42 0 6 45 c3 25 6 82 6 126 0 92 -25 158 -79 210 -41 39 -145 54 -252 36z"></path><path id="p2FGPjJlY" d="M1998 2403 c28 -2 76 -2 105 0 28 2 5 3 -53 3 -58 0 -81 -1 -52 -3z"></path><path id="p13BqOqGlo" d="M1850 2382 c-40 -15 -49 -24 -76 -81 -36 -71 -55 -152 -53 -220 1 -40 3 -38 9 21 11 89 44 185 78 226 18 22 47 40 82 53 35 11 46 18 30 18 -14 0 -45 -8 -70 -17z"></path><path id="pTn7VVABQ" d="M3180 2057 c-25 -28 -39 -47 -32 -43 23 14 12 -20 -15 -46 -31 -29 -159 -96 -148 -78 5 8 1 10 -11 7 -11 -3 -46 -13 -79 -22 -33 -9 -71 -20 -85 -23 -13 -4 -35 -23 -48 -42 -23 -34 -24 -38 -18 -200 3 -91 8 -174 11 -185 7 -24 65 -63 105 -71 26 -6 29 -10 27 -43 -2 -31 1 -36 23 -40 14 -1 28 -7 31 -13 3 -5 17 4 31 20 18 22 41 34 82 43 53 13 57 16 80 65 43 91 56 151 56 265 0 70 4 110 11 115 9 5 10 41 5 125 -7 135 -4 161 27 174 28 13 36 45 10 44 -10 -1 -38 -24 -63 -52z"></path></g></g></svg>